<?xml version="1.0" encoding="UTF-8"?>
<svg xmlns="http://www.w3.org/2000/svg" xmlns:xlink="http://www.w3.org/1999/xlink" width="858.898pt" height="612.283pt" viewBox="0 0 858.898 612.283" version="1.1">
<g id="surface1">
<path style=" stroke:none;fill-rule:nonzero;fill:rgb(5.085754%,50.305176%,78.425598%);fill-opacity:1;" d="M 709.664063 155.167969 C 700.367188 151.695313 693.019531 151.5 693.019531 151.5 C 682.671875 149.378906 672.175781 155.167969 672.175781 155.167969 L 671.578125 155.167969 C 671.578125 155.167969 672.476563 157.871094 673.375 158.835938 C 673.375 158.835938 674.125 156.710938 675.625 154.972656 C 675.625 154.972656 677.425781 154.394531 679.972656 153.816406 C 679.222656 154.589844 678.625 155.746094 678.476563 157.097656 C 678.023438 160.378906 680.421875 163.46875 683.722656 163.855469 C 687.171875 164.238281 690.171875 161.921875 690.621094 158.640625 C 690.917969 156.132813 689.71875 153.816406 687.621094 152.660156 L 690.171875 152.660156 L 716.710938 162.503906 C 716.710938 162.503906 731.257813 178.136719 731.558594 203.230469 C 736.054688 195.316406 738.605469 186.050781 738.605469 176.398438 C 738.605469 145.902344 713.710938 121.195313 683.121094 121.195313 C 652.53125 121.195313 627.640625 145.902344 627.640625 176.398438 C 627.640625 190.488281 633.039063 203.421875 641.738281 213.265625 C 679.972656 203.613281 655.683594 176.980469 655.683594 176.980469 L 660.628906 180.257813 C 660.628906 180.257813 687.171875 224.460938 643.386719 230.25 L 643.535156 230.25 C 628.839844 218.671875 619.394531 200.914063 619.394531 181.03125 C 619.394531 146.480469 647.585938 118.496094 682.222656 118.496094 C 717.011719 118.496094 745.203125 146.480469 745.203125 181.03125 C 745.203125 211.722656 722.859375 237.199219 693.46875 242.410156 C 693.46875 242.410156 736.65625 186.050781 663.328125 169.835938 C 652.234375 167.519531 648.035156 169.835938 649.382813 179.292969 C 649.382813 179.488281 646.085938 176.785156 645.484375 170.800781 C 645.035156 165.976563 646.984375 161.921875 650.882813 158.449219 C 651.484375 158.0625 652.382813 157.871094 653.28125 157.871094 C 654.78125 157.871094 655.382813 156.519531 656.882813 154.394531 C 663.328125 151.113281 671.875 148.796875 681.171875 147.445313 C 690.917969 145.902344 699.917969 149.183594 707.714844 153.816406 C 708.464844 154.203125 709.0625 154.589844 709.664063 155.167969 "/>
<path style=" stroke:none;fill-rule:nonzero;fill:rgb(92.904663%,9.991455%,17.790222%);fill-opacity:1;" d="M 684.023438 161.730469 C 686.269531 162.117188 688.222656 160.574219 688.519531 158.449219 C 688.820313 156.132813 687.171875 154.203125 685.074219 154.007813 C 682.824219 153.625 680.875 155.167969 680.574219 157.289063 C 680.273438 159.605469 681.921875 161.539063 684.023438 161.730469 C 684.023438 161.730469 681.921875 161.539063 684.023438 161.730469 "/>
<path style=" stroke:none;fill-rule:nonzero;fill:rgb(100%,100%,100%);fill-opacity:1;" d="M 683.121094 159.027344 C 682.523438 159.027344 681.921875 158.449219 681.921875 157.675781 C 681.921875 156.90625 682.371094 156.324219 682.972656 156.324219 C 683.722656 156.132813 684.171875 156.710938 684.324219 157.484375 C 684.324219 158.257813 683.871094 158.835938 683.121094 159.027344 C 683.121094 159.027344 683.871094 158.835938 683.121094 159.027344 "/>
<path style=" stroke:none;fill-rule:nonzero;fill:rgb(92.904663%,9.991455%,17.790222%);fill-opacity:1;" d="M 667.527344 188.945313 C 667.527344 188.945313 684.472656 225.425781 646.984375 231.796875 C 646.984375 231.796875 652.53125 235.65625 667.527344 240.289063 C 667.527344 240.289063 698.71875 231.601563 667.527344 188.945313 "/>
<path style=" stroke:none;fill-rule:nonzero;fill:rgb(5.085754%,50.305176%,78.425598%);fill-opacity:1;" d="M 588.203125 141.65625 L 607.097656 123.125 L 643.835938 123.125 C 643.835938 123.125 633.789063 128.53125 623.894531 143.007813 L 615.496094 143.007813 L 588.054688 170.417969 "/>
<path style=" stroke:none;fill-rule:nonzero;fill:rgb(5.085754%,50.305176%,78.425598%);fill-opacity:1;" d="M 642.785156 86.839844 L 669.328125 87.03125 L 695.269531 113.089844 C 695.269531 113.089844 684.472656 109.808594 667.226563 113.089844 L 661.230469 107.105469 L 622.542969 107.105469 "/>
<path style=" stroke:none;fill-rule:nonzero;fill:rgb(5.085754%,50.305176%,78.425598%);fill-opacity:1;" d="M 642.488281 274.066406 L 623.894531 254.957031 L 624.042969 218.285156 C 624.042969 218.285156 629.441406 228.320313 643.835938 238.164063 L 643.835938 246.65625 L 671.125 274.257813 "/>
<path style=" stroke:none;fill-rule:nonzero;fill:rgb(5.085754%,50.305176%,78.425598%);fill-opacity:1;" d="M 721.058594 273.679688 L 694.519531 273.488281 L 668.878906 247.816406 C 668.878906 247.816406 679.675781 250.902344 696.917969 247.625 L 702.765625 253.414063 L 741.304688 253.414063 "/>
<path style=" stroke:none;fill-rule:nonzero;fill:rgb(5.085754%,50.305176%,78.425598%);fill-opacity:1;" d="M 775.492188 218.476563 L 757.046875 237.007813 L 721.507813 237.007813 C 721.507813 237.007813 731.105469 231.601563 740.703125 217.125 L 748.949219 217.125 L 775.492188 189.71875 "/>
<path style=" stroke:none;fill-rule:nonzero;fill:rgb(5.085754%,50.305176%,78.425598%);fill-opacity:1;" d="M 755.398438 121.582031 L 775.640625 142.042969 L 775.492188 168.484375 L 750.300781 193.578125 C 750.300781 193.578125 753.300781 179.101563 749.851563 165.589844 L 755.398438 160.1875 "/>
<path style=" stroke:none;fill-rule:nonzero;fill:rgb(5.085754%,50.305176%,78.425598%);fill-opacity:1;" d="M 691.371094 86.839844 L 720.160156 86.839844 L 738.902344 105.753906 L 738.902344 140.691406 C 738.902344 140.691406 728.40625 126.601563 718.8125 121.96875 L 718.8125 114.054688 "/>
<path style=" stroke:none;fill-rule:nonzero;fill:rgb(5.085754%,50.305176%,78.425598%);fill-opacity:1;" d="M 614.144531 167.132813 L 587.90625 193.191406 L 587.605469 219.828125 L 608 240.09375 L 608 201.492188 L 614.445313 195.121094 C 614.445313 195.121094 611.296875 182.574219 614.144531 167.132813 "/>
<path style=" stroke:none;fill-rule:nonzero;fill:rgb(5.085754%,50.305176%,78.425598%);fill-opacity:1;" d="M 156.5 304.371094 C 157.402344 304.371094 158.152344 304.175781 158.75 303.40625 C 159.351563 302.824219 159.652344 302.054688 159.652344 301.089844 C 159.652344 300.316406 159.351563 299.546875 158.75 298.964844 C 158.152344 298.386719 157.402344 298 156.5 298 C 155.601563 298 154.851563 298.386719 154.101563 298.964844 C 153.503906 299.546875 153.203125 300.316406 153.203125 301.089844 C 153.203125 302.054688 153.503906 302.824219 154.101563 303.597656 C 154.851563 304.175781 155.601563 304.371094 156.5 304.371094 "/>
<path style=" stroke:none;fill-rule:nonzero;fill:rgb(5.085754%,50.305176%,78.425598%);fill-opacity:1;" d="M 179.894531 313.054688 C 180.792969 313.054688 181.542969 312.863281 182.144531 312.089844 C 182.742188 311.511719 183.042969 310.738281 183.042969 309.773438 C 183.042969 308.808594 182.742188 308.039063 182.144531 307.457031 C 181.542969 306.6875 180.792969 306.492188 179.894531 306.492188 C 178.992188 306.492188 178.246094 306.6875 177.496094 307.457031 C 176.894531 308.039063 176.59375 308.808594 176.59375 309.773438 C 176.59375 310.738281 176.894531 311.511719 177.496094 312.089844 C 178.246094 312.863281 178.992188 313.054688 179.894531 313.054688 "/>
<path style=" stroke:none;fill-rule:nonzero;fill:rgb(5.085754%,50.305176%,78.425598%);fill-opacity:1;" d="M 158 325.410156 L 151.101563 325.410156 C 152.304688 324.058594 153.203125 323.09375 153.953125 322.707031 C 154.550781 322.320313 155.003906 321.933594 155.152344 321.546875 C 155.453125 320.96875 155.753906 320.390625 155.902344 320.003906 C 156.652344 319.230469 157.25 318.652344 158 318.074219 Z M 129.359375 335.640625 L 97.273438 335.640625 L 97.273438 333.515625 L 100.269531 330.8125 L 125.460938 330.8125 C 126.960938 330.8125 127.859375 331.007813 128.460938 331.390625 C 129.0625 331.777344 129.359375 332.742188 129.359375 334.289063 Z M 198.789063 292.210938 C 198.636719 292.210938 197.4375 294.527344 195.339844 299.351563 C 195.1875 299.546875 194.738281 299.738281 193.839844 300.125 C 192.640625 300.511719 191.890625 300.894531 191.289063 301.476563 C 190.539063 302.054688 190.089844 302.824219 190.089844 303.789063 C 190.089844 304.175781 190.390625 304.175781 190.691406 304.175781 C 190.992188 304.175781 191.140625 304.175781 191.589844 303.984375 C 191.890625 303.789063 192.1875 303.789063 192.488281 303.789063 C 193.6875 303.789063 194.289063 304.5625 194.289063 306.105469 L 194.289063 335.640625 L 183.042969 335.640625 L 183.042969 317.6875 C 183.042969 317.109375 182.894531 316.914063 182.59375 316.914063 C 182.441406 316.914063 181.84375 317.882813 180.941406 320.003906 C 179.894531 321.933594 179.445313 323.09375 179.445313 323.09375 L 179.445313 324.445313 C 179.445313 325.214844 178.695313 325.988281 176.894531 326.761719 C 175.246094 327.53125 174.496094 328.496094 174.496094 329.847656 C 174.496094 330.039063 174.644531 330.234375 174.945313 330.234375 C 175.09375 330.234375 175.394531 330.039063 175.695313 329.847656 C 176.144531 329.847656 176.445313 329.65625 176.59375 329.65625 C 177.496094 329.65625 177.945313 330.425781 177.945313 331.777344 L 177.945313 335.640625 L 163.097656 335.640625 L 163.097656 308.035156 C 163.097656 306.878906 162.949219 306.300781 162.800781 306.300781 C 162.5 306.300781 162.199219 306.6875 161.898438 307.265625 C 161.601563 308.035156 161.148438 308.808594 160.699219 309.390625 C 159.949219 310.160156 158.75 310.933594 156.800781 312.089844 C 155.003906 313.054688 153.800781 313.828125 153.503906 314.214844 C 152.902344 314.601563 152.453125 315.371094 152.304688 316.335938 C 152.003906 317.300781 151.703125 317.882813 151.554688 317.882813 C 149.90625 322.515625 148.855469 324.828125 148.40625 324.828125 C 148.40625 324.828125 148.253906 324.058594 148.253906 322.707031 C 148.253906 321.546875 147.804688 321.546875 147.054688 322.898438 C 146.605469 323.671875 145.855469 325.214844 144.957031 327.339844 C 144.65625 327.917969 143.90625 328.496094 142.855469 329.269531 C 142.105469 329.65625 141.65625 330.234375 141.65625 330.425781 C 141.65625 330.8125 141.957031 331.199219 142.707031 331.199219 L 158 331.199219 L 158 335.640625 L 134.460938 335.640625 L 134.460938 332.550781 C 134.460938 329.847656 133.859375 327.917969 132.511719 326.761719 C 131.160156 325.796875 129.210938 325.214844 126.363281 325.214844 L 100.269531 325.214844 L 97.273438 328.109375 L 97.273438 293.175781 C 97.273438 292.402344 97.121094 292.015625 96.824219 292.015625 C 96.523438 292.015625 96.371094 292.210938 96.222656 292.597656 C 96.074219 292.980469 95.921875 293.367188 95.773438 293.753906 C 95.621094 294.140625 95.171875 294.910156 94.421875 296.261719 C 93.972656 297.035156 93.824219 297.613281 93.824219 298 C 93.824219 298.195313 93.824219 298.386719 93.972656 298.773438 C 94.125 299.15625 94.125 299.351563 94.125 299.546875 C 94.125 299.929688 93.671875 300.316406 92.773438 300.511719 C 91.273438 301.089844 90.523438 301.476563 90.222656 301.667969 C 89.175781 302.246094 88.726563 303.019531 88.726563 304.175781 C 88.726563 304.371094 88.875 304.5625 89.023438 304.5625 C 89.175781 304.5625 89.472656 304.5625 89.773438 304.371094 C 90.074219 304.175781 90.222656 304.175781 90.375 304.175781 C 91.574219 304.175781 92.171875 305.335938 92.171875 307.84375 L 91.722656 335.640625 L 79.878906 335.640625 L 79.878906 341.429688 L 183.042969 341.429688 L 183.042969 341.25 L 199.386719 341.429688 L 199.386719 293.367188 C 199.386719 292.597656 199.238281 292.210938 198.789063 292.210938 "/>
<path style=" stroke:none;fill-rule:nonzero;fill:rgb(5.085754%,50.305176%,78.425598%);fill-opacity:1;" d="M 212.882813 291.246094 C 212.582031 291.246094 212.28125 291.628906 212.132813 292.015625 C 211.832031 293.175781 211.683594 293.753906 211.683594 293.753906 C 211.53125 294.140625 211.082031 294.71875 210.183594 295.875 C 209.433594 296.84375 209.132813 297.613281 209.132813 298.195313 C 209.132813 298.386719 209.132813 298.578125 209.285156 298.964844 L 209.285156 299.738281 C 209.285156 300.125 208.984375 300.316406 208.085938 300.703125 C 206.882813 301.089844 206.132813 301.28125 205.683594 301.667969 C 204.9375 302.054688 204.484375 302.824219 204.484375 303.789063 C 204.484375 304.371094 204.636719 304.5625 204.9375 304.5625 C 205.234375 304.5625 205.683594 304.371094 206.132813 304.175781 C 206.585938 303.984375 206.882813 303.789063 207.183594 303.789063 C 207.933594 303.789063 208.234375 304.5625 208.234375 306.105469 L 208.234375 341.429688 L 213.332031 341.429688 L 213.332031 292.015625 C 213.332031 291.4375 213.183594 291.246094 212.882813 291.246094 "/>
<path style=" stroke:none;fill-rule:nonzero;fill:rgb(5.085754%,50.305176%,78.425598%);fill-opacity:1;" d="M 258.167969 346.0625 C 257.265625 346.0625 256.519531 346.449219 255.917969 347.027344 C 255.167969 347.796875 254.867188 348.570313 254.867188 349.34375 C 254.867188 350.308594 255.167969 351.082031 255.917969 351.851563 C 256.519531 352.433594 257.265625 352.816406 258.167969 352.816406 C 259.066406 352.816406 259.816406 352.433594 260.566406 351.851563 C 261.167969 351.082031 261.464844 350.308594 261.464844 349.34375 C 261.464844 348.570313 261.167969 347.796875 260.566406 347.027344 C 259.964844 346.449219 259.21875 346.0625 258.167969 346.0625 "/>
<path style=" stroke:none;fill-rule:nonzero;fill:rgb(5.085754%,50.305176%,78.425598%);fill-opacity:1;" d="M 270.011719 316.144531 C 269.714844 316.144531 269.5625 316.335938 269.414063 316.722656 C 269.414063 317.300781 269.261719 317.6875 269.261719 318.074219 C 269.261719 318.652344 268.8125 319.230469 268.0625 320.195313 C 267.464844 320.96875 267.015625 321.933594 267.015625 323.09375 L 267.015625 324.25 C 267.015625 324.636719 266.265625 325.214844 264.613281 325.988281 C 262.816406 326.761719 262.066406 327.917969 262.066406 329.074219 C 262.066406 329.269531 262.214844 329.460938 262.515625 329.460938 C 262.664063 329.460938 262.964844 329.460938 263.414063 329.269531 C 263.714844 329.074219 264.015625 329.074219 264.164063 329.074219 C 265.214844 329.074219 265.664063 330.042969 265.664063 331.777344 L 265.664063 335.640625 L 249.789063 335.640625 C 249.492188 334.628906 249.089844 333.667969 248.570313 332.742188 C 247.519531 331.199219 246.472656 329.65625 245.421875 328.109375 C 244.222656 326.375 243.621094 324.636719 243.621094 323.09375 C 243.621094 322.707031 243.621094 322.515625 243.773438 321.933594 C 243.773438 321.355469 243.921875 321.160156 243.921875 320.777344 C 243.921875 320.390625 243.773438 320.195313 243.621094 320.195313 C 243.023438 320.195313 242.421875 320.96875 241.671875 322.515625 C 240.921875 324.058594 240.472656 325.410156 240.472656 326.375 L 240.472656 328.691406 C 240.472656 328.882813 239.875 329.269531 238.375 330.425781 C 236.875 331.390625 236.125 332.359375 236.125 333.324219 C 236.125 333.710938 236.273438 333.902344 236.574219 333.902344 C 236.875 333.902344 237.324219 333.902344 237.925781 333.710938 L 239.273438 333.710938 C 240.625 333.710938 241.972656 334.289063 243.320313 335.640625 C 244.523438 337.183594 245.269531 338.726563 245.269531 340.464844 C 245.269531 345.097656 243.023438 348.378906 238.523438 350.695313 C 237.023438 351.464844 234.925781 352.046875 232.375 352.238281 C 230.425781 352.429688 229.378906 352.816406 229.378906 353.394531 C 229.378906 354.167969 230.726563 354.554688 233.425781 354.554688 C 237.773438 354.554688 241.375 353.589844 244.371094 351.851563 C 247.890625 349.589844 249.933594 346.0625 250.304688 341.429688 L 270.613281 341.429688 L 270.613281 317.109375 C 270.613281 316.53125 270.464844 316.144531 270.011719 316.144531 "/>
<path style=" stroke:none;fill-rule:nonzero;fill:rgb(5.085754%,50.305176%,78.425598%);fill-opacity:1;" d="M 267.164063 346.0625 C 266.265625 346.0625 265.515625 346.449219 264.914063 347.027344 C 264.316406 347.796875 263.863281 348.570313 263.863281 349.34375 C 263.863281 350.308594 264.316406 351.082031 264.914063 351.851563 C 265.515625 352.433594 266.265625 352.816406 267.164063 352.816406 C 268.0625 352.816406 268.8125 352.433594 269.414063 351.851563 C 270.011719 351.082031 270.3125 350.308594 270.3125 349.34375 C 270.3125 348.570313 270.011719 347.796875 269.414063 347.027344 C 268.8125 346.449219 268.0625 346.0625 267.164063 346.0625 "/>
<path style=" stroke:none;fill-rule:nonzero;fill:rgb(5.085754%,50.305176%,78.425598%);fill-opacity:1;" d="M 367.78125 312.089844 C 368.679688 312.089844 369.578125 311.703125 370.179688 311.125 C 370.777344 310.355469 371.230469 309.582031 371.230469 308.808594 C 371.230469 307.84375 370.777344 307.074219 370.179688 306.300781 C 369.429688 305.71875 368.679688 305.335938 367.78125 305.335938 C 366.878906 305.335938 366.128906 305.71875 365.382813 306.300781 C 364.78125 307.074219 364.480469 307.84375 364.480469 308.808594 C 364.480469 309.582031 364.78125 310.355469 365.382813 311.125 C 366.128906 311.703125 366.878906 312.089844 367.78125 312.089844 "/>
<path style=" stroke:none;fill-rule:nonzero;fill:rgb(5.085754%,50.305176%,78.425598%);fill-opacity:1;" d="M 376.925781 312.089844 C 377.828125 312.089844 378.574219 311.703125 379.175781 311.125 C 379.925781 310.355469 380.226563 309.582031 380.226563 308.808594 C 380.226563 307.84375 379.777344 307.074219 379.175781 306.300781 C 378.574219 305.71875 377.828125 305.335938 376.925781 305.335938 C 376.027344 305.335938 375.277344 305.71875 374.527344 306.300781 C 373.929688 307.074219 373.628906 307.84375 373.628906 308.808594 C 373.628906 309.582031 373.929688 310.355469 374.527344 311.125 C 375.277344 311.703125 376.027344 312.089844 376.925781 312.089844 "/>
<path style=" stroke:none;fill-rule:nonzero;fill:rgb(5.085754%,50.305176%,78.425598%);fill-opacity:1;" d="M 395.820313 292.210938 C 395.519531 292.210938 394.46875 294.527344 392.371094 299.351563 C 392.222656 299.546875 391.769531 299.738281 390.722656 300.125 C 389.671875 300.511719 388.921875 300.894531 388.324219 301.476563 C 387.574219 302.054688 387.125 302.824219 387.125 303.789063 C 387.125 304.175781 387.273438 304.175781 387.722656 304.175781 C 387.875 304.175781 388.171875 304.175781 388.621094 303.984375 C 388.921875 303.789063 389.222656 303.789063 389.371094 303.789063 C 390.574219 303.789063 391.171875 304.5625 391.171875 306.105469 L 391.171875 335.640625 L 380.226563 335.640625 L 380.226563 316.914063 C 380.226563 316.53125 380.074219 316.144531 379.625 316.144531 C 379.328125 316.144531 379.175781 316.53125 378.875 316.914063 C 378.726563 318.074219 378.425781 318.652344 378.425781 318.652344 C 378.277344 319.039063 377.828125 319.617188 376.925781 320.777344 C 376.328125 321.742188 375.878906 322.515625 375.878906 323.09375 C 375.878906 323.285156 376.027344 323.480469 376.027344 323.863281 C 376.175781 324.25 376.175781 324.445313 376.175781 324.636719 C 376.175781 325.023438 375.726563 325.214844 374.828125 325.410156 C 373.777344 325.796875 372.878906 326.179688 372.578125 326.375 C 371.679688 326.953125 371.226563 327.726563 371.226563 328.691406 C 371.226563 329.074219 371.378906 329.269531 371.828125 329.269531 C 372.128906 329.269531 372.429688 329.269531 372.878906 329.074219 C 373.328125 328.882813 373.777344 328.691406 373.925781 328.691406 C 374.675781 328.691406 374.976563 329.460938 374.976563 331.007813 L 374.976563 335.640625 L 359.832031 335.640625 L 359.832031 333.902344 C 359.832031 330.234375 358.933594 327.917969 357.433594 326.566406 C 355.785156 325.410156 352.933594 324.828125 348.886719 324.828125 L 313.347656 324.828125 L 332.691406 311.320313 C 334.492188 310.160156 335.691406 309.390625 336.441406 309.390625 C 337.039063 309.390625 337.339844 309.773438 337.640625 310.546875 C 337.941406 311.320313 338.089844 311.511719 338.390625 311.511719 C 338.539063 311.511719 338.839844 311.320313 339.140625 310.738281 C 339.4375 310.160156 339.589844 309.390625 339.589844 308.617188 C 339.589844 307.84375 339.4375 307.070313 339.140625 306.492188 C 338.839844 305.722656 338.539063 305.335938 338.539063 305.335938 C 338.539063 305.335938 338.988281 304.371094 340.039063 302.824219 C 340.9375 301.089844 341.390625 300.316406 341.390625 300.125 C 341.390625 299.929688 341.6875 299.546875 342.136719 299.15625 C 342.589844 298.773438 342.886719 298.386719 342.886719 298.195313 C 342.886719 297.808594 342.738281 297.613281 342.4375 297.613281 C 342.4375 297.613281 342.136719 297.808594 341.539063 298.195313 L 305.101563 324.828125 L 305.101563 330.8125 L 348.886719 330.8125 C 351.285156 330.8125 352.785156 331.007813 353.535156 331.199219 C 354.433594 331.585938 354.882813 332.359375 354.882813 333.515625 L 354.882813 335.640625 L 294.921875 335.640625 C 294.628906 334.628906 294.226563 333.664063 293.707031 332.742188 C 292.65625 331.199219 291.605469 329.65625 290.554688 328.109375 C 289.355469 326.375 288.757813 324.636719 288.757813 323.09375 C 288.757813 322.707031 288.757813 322.515625 288.90625 321.933594 C 288.90625 321.355469 289.054688 321.164063 289.054688 320.777344 C 289.054688 320.390625 288.90625 320.195313 288.757813 320.195313 C 288.15625 320.195313 287.558594 320.96875 286.808594 322.515625 C 286.058594 324.058594 285.605469 325.410156 285.605469 326.375 L 285.605469 328.691406 C 285.605469 328.882813 285.007813 329.269531 283.507813 330.425781 C 282.007813 331.390625 281.257813 332.359375 281.257813 333.324219 C 281.257813 333.710938 281.410156 333.902344 281.710938 333.902344 C 282.007813 333.902344 282.457031 333.902344 283.058594 333.710938 L 284.410156 333.710938 C 285.757813 333.710938 287.105469 334.289063 288.457031 335.640625 C 289.65625 337.183594 290.40625 338.726563 290.40625 340.464844 C 290.40625 345.097656 288.15625 348.378906 283.660156 350.695313 C 282.160156 351.464844 280.210938 352.046875 277.511719 352.238281 C 275.5625 352.429688 274.511719 352.816406 274.511719 353.394531 C 274.511719 354.167969 275.863281 354.554688 278.558594 354.554688 C 282.910156 354.554688 286.507813 353.589844 289.507813 351.851563 C 293.023438 349.589844 295.070313 346.066406 295.4375 341.429688 L 380.226563 341.429688 L 380.226563 341.253906 L 396.421875 341.429688 L 396.421875 293.367188 C 396.421875 292.597656 396.121094 292.210938 395.820313 292.210938 "/>
<path style=" stroke:none;fill-rule:nonzero;fill:rgb(5.085754%,50.305176%,78.425598%);fill-opacity:1;" d="M 441.253906 344.902344 C 440.355469 344.902344 439.605469 345.289063 439.007813 345.867188 C 438.40625 346.449219 438.105469 347.21875 438.105469 348.183594 C 438.105469 348.957031 438.40625 349.730469 439.007813 350.308594 C 439.605469 350.886719 440.355469 351.273438 441.253906 351.273438 C 442.15625 351.273438 442.902344 350.886719 443.503906 350.308594 C 444.105469 349.730469 444.402344 348.957031 444.402344 348.183594 C 444.402344 347.21875 444.105469 346.449219 443.503906 345.867188 C 442.902344 345.289063 442.15625 344.902344 441.253906 344.902344 "/>
<path style=" stroke:none;fill-rule:nonzero;fill:rgb(5.085754%,50.305176%,78.425598%);fill-opacity:1;" d="M 448.902344 344.902344 C 448.003906 344.902344 447.253906 345.289063 446.652344 345.867188 C 446.054688 346.449219 445.753906 347.21875 445.753906 348.183594 C 445.753906 348.957031 446.054688 349.730469 446.652344 350.308594 C 447.253906 350.886719 448.003906 351.273438 448.902344 351.273438 C 449.800781 351.273438 450.550781 350.886719 451.152344 350.308594 C 451.75 349.730469 452.050781 348.957031 452.050781 348.183594 C 452.050781 347.21875 451.75 346.449219 451.152344 345.867188 C 450.550781 345.289063 449.800781 344.902344 448.902344 344.902344 "/>
<path style=" stroke:none;fill-rule:nonzero;fill:rgb(5.085754%,50.305176%,78.425598%);fill-opacity:1;" d="M 492.386719 346.640625 C 491.789063 345.867188 491.039063 345.675781 490.136719 345.675781 C 489.238281 345.675781 488.488281 345.867188 487.738281 346.640625 C 487.140625 347.21875 486.839844 347.992188 486.839844 348.957031 C 486.839844 349.921875 487.140625 350.695313 487.738281 351.273438 C 488.488281 352.042969 489.238281 352.433594 490.136719 352.433594 C 491.039063 352.433594 491.789063 352.042969 492.386719 351.464844 C 493.136719 350.695313 493.4375 349.921875 493.4375 348.957031 C 493.4375 347.992188 493.136719 347.21875 492.386719 346.640625 "/>
<path style=" stroke:none;fill-rule:nonzero;fill:rgb(5.085754%,50.305176%,78.425598%);fill-opacity:1;" d="M 546.820313 335.640625 L 514.730469 335.640625 L 514.730469 333.515625 L 517.730469 330.8125 L 542.921875 330.8125 C 544.421875 330.8125 545.320313 331.007813 545.917969 331.394531 C 546.519531 331.777344 546.820313 332.742188 546.820313 334.289063 Z M 549.96875 326.761719 C 548.617188 325.792969 546.667969 325.214844 543.820313 325.214844 L 517.730469 325.214844 L 514.730469 328.109375 L 514.730469 293.175781 C 514.730469 292.402344 514.582031 292.015625 514.28125 292.015625 C 514.128906 292.015625 513.832031 292.210938 513.679688 292.597656 C 513.679688 292.980469 513.378906 293.367188 513.230469 293.753906 C 513.082031 294.140625 512.632813 294.910156 511.882813 296.261719 C 511.429688 297.035156 511.28125 297.613281 511.28125 298 C 511.28125 298.195313 511.28125 298.386719 511.429688 298.773438 C 511.582031 299.160156 511.582031 299.351563 511.582031 299.542969 C 511.582031 299.929688 511.132813 300.316406 510.230469 300.511719 C 508.882813 301.089844 507.980469 301.476563 507.683594 301.667969 C 506.78125 302.246094 506.183594 303.019531 506.183594 304.175781 C 506.183594 304.371094 506.332031 304.5625 506.484375 304.5625 C 506.78125 304.5625 506.933594 304.5625 507.230469 304.371094 C 507.53125 304.175781 507.683594 304.175781 507.832031 304.175781 C 509.03125 304.175781 509.632813 305.335938 509.632813 307.84375 L 509.332031 335.640625 L 498.234375 335.640625 L 498.234375 317.6875 C 498.234375 317.109375 497.9375 316.914063 497.636719 316.914063 C 497.335938 316.914063 497.035156 317.109375 497.035156 317.6875 C 496.734375 318.652344 496.585938 319.234375 496.4375 319.425781 C 496.4375 319.8125 495.835938 320.390625 494.9375 321.546875 C 494.335938 322.515625 493.886719 323.285156 493.886719 323.863281 C 493.886719 324.058594 494.035156 324.25 494.035156 324.636719 L 494.035156 325.410156 C 494.035156 325.792969 493.585938 325.988281 492.835938 326.179688 C 491.636719 326.566406 490.886719 326.953125 490.589844 327.144531 C 489.6875 327.726563 489.238281 328.496094 489.238281 329.269531 C 489.238281 329.847656 489.390625 330.042969 489.839844 330.042969 C 489.988281 330.042969 490.4375 330.042969 490.886719 329.847656 C 491.339844 329.65625 491.789063 329.460938 491.9375 329.460938 C 492.6875 329.460938 493.136719 330.234375 493.136719 331.777344 L 493.136719 336.023438 L 477.84375 336.023438 L 477.84375 335.640625 L 477.542969 335.640625 L 446.054688 302.632813 C 445.753906 302.246094 445.601563 302.054688 445.453125 302.054688 C 445.304688 302.054688 445.152344 302.246094 445.152344 302.632813 L 445.152344 303.597656 C 445.152344 304.949219 444.402344 307.070313 442.753906 309.96875 C 441.253906 313.054688 440.355469 315.179688 440.355469 316.144531 C 440.355469 317.6875 440.804688 319.039063 441.707031 320.195313 C 442.003906 320.582031 442.902344 321.546875 444.402344 323.09375 L 456.550781 335.640625 L 427.460938 335.640625 C 426.261719 335.640625 425.359375 335.445313 424.761719 335.058594 C 424.460938 334.671875 424.160156 334.289063 423.859375 333.707031 C 423.710938 333.324219 423.5625 332.9375 423.261719 332.9375 C 423.109375 332.9375 422.660156 333.324219 422.0625 333.902344 C 421.3125 334.867188 421.011719 335.640625 421.011719 336.605469 L 421.011719 337.375 C 421.011719 337.570313 420.863281 337.761719 420.5625 337.761719 L 419.511719 337.761719 C 419.0625 337.761719 418.613281 337.761719 418.3125 337.953125 C 418.011719 338.148438 417.714844 338.339844 417.261719 338.535156 C 416.664063 339.113281 416.363281 339.304688 416.214844 339.5 C 415.765625 339.691406 415.164063 339.886719 414.265625 340.078125 C 413.515625 340.269531 413.214844 340.464844 413.214844 340.65625 C 413.214844 341.234375 413.515625 341.429688 414.113281 341.429688 L 469.296875 341.429688 L 447.851563 318.847656 C 446.804688 317.6875 446.203125 316.722656 446.203125 315.949219 C 446.203125 315.371094 446.804688 314.214844 447.851563 312.285156 L 474.84375 339.886719 L 476.191406 340.851563 L 476.792969 340.921875 L 476.792969 341.429688 L 551.917969 341.429688 L 551.917969 332.550781 C 551.917969 329.847656 551.316406 327.917969 549.96875 326.761719 "/>
<path style=" stroke:none;fill-rule:nonzero;fill:rgb(5.085754%,50.305176%,78.425598%);fill-opacity:1;" d="M 532.273438 320.199219 C 533.175781 320.199219 533.921875 320.003906 534.523438 319.230469 C 535.121094 318.652344 535.421875 317.882813 535.421875 317.109375 C 535.421875 316.144531 535.121094 315.371094 534.523438 314.792969 C 533.921875 314.019531 533.175781 313.828125 532.273438 313.828125 C 531.375 313.828125 530.625 314.019531 529.875 314.792969 C 529.273438 315.371094 528.976563 316.144531 528.976563 317.109375 C 528.976563 317.882813 529.273438 318.652344 529.875 319.230469 C 530.625 320.003906 531.375 320.199219 532.273438 320.199219 "/>
<path style=" stroke:none;fill-rule:nonzero;fill:rgb(5.085754%,50.305176%,78.425598%);fill-opacity:1;" d="M 591.203125 346.640625 C 590.605469 345.867188 589.855469 345.675781 588.953125 345.675781 C 588.054688 345.675781 587.304688 345.867188 586.554688 346.640625 C 585.957031 347.21875 585.65625 347.992188 585.65625 348.957031 C 585.65625 349.921875 585.957031 350.695313 586.554688 351.273438 C 587.304688 352.042969 588.054688 352.433594 588.953125 352.433594 C 589.855469 352.433594 590.605469 352.042969 591.203125 351.464844 C 591.953125 350.695313 592.253906 349.921875 592.253906 348.957031 C 592.253906 347.992188 591.953125 347.21875 591.203125 346.640625 "/>
<path style=" stroke:none;fill-rule:nonzero;fill:rgb(5.085754%,50.305176%,78.425598%);fill-opacity:1;" d="M 571.261719 335.640625 L 565.710938 335.640625 C 566.164063 334.09375 566.761719 332.9375 567.511719 332.550781 C 568.261719 331.972656 568.863281 331.585938 569.160156 331.007813 C 569.460938 330.042969 569.761719 329.460938 570.0625 329.269531 C 570.210938 329.074219 570.511719 328.691406 571.261719 328.304688 Z M 596.453125 316.53125 C 596.152344 316.53125 595.851563 316.722656 595.851563 317.300781 C 595.554688 318.265625 595.402344 318.847656 595.253906 319.039063 C 595.253906 319.234375 594.652344 320.003906 593.753906 321.164063 C 593.152344 322.128906 592.703125 322.898438 592.703125 323.480469 C 592.703125 323.671875 592.855469 323.863281 592.855469 324.25 L 592.855469 325.023438 C 592.855469 325.410156 592.402344 325.601563 591.652344 325.792969 C 590.453125 326.179688 589.703125 326.566406 589.40625 326.761719 C 588.503906 327.339844 588.054688 328.109375 588.054688 329.074219 C 588.054688 329.460938 588.203125 329.65625 588.65625 329.65625 C 588.804688 329.65625 589.253906 329.65625 589.703125 329.460938 C 590.15625 329.269531 590.453125 329.074219 590.753906 329.074219 C 591.503906 329.074219 591.804688 331.007813 591.804688 335.058594 L 591.804688 336.023438 L 576.359375 336.023438 L 576.359375 317.6875 C 576.359375 316.722656 576.207031 316.144531 575.757813 316.144531 C 575.457031 316.144531 575.308594 316.53125 575.160156 316.914063 C 574.859375 317.6875 574.558594 318.265625 574.410156 318.460938 C 573.511719 319.8125 572.609375 320.582031 571.710938 320.96875 C 570.359375 321.546875 569.613281 321.933594 569.460938 322.128906 C 568.261719 322.898438 567.0625 324.636719 565.5625 326.953125 C 564.664063 328.304688 564.0625 328.882813 563.765625 328.882813 C 563.3125 328.882813 563.015625 329.074219 562.414063 329.460938 C 562.414063 329.65625 562.113281 330.042969 561.664063 330.621094 C 561.0625 331.199219 560.613281 332.359375 560.164063 333.902344 C 559.714844 335.832031 559.113281 337.183594 558.664063 337.953125 C 558.363281 338.535156 557.765625 339.113281 557.164063 339.691406 C 556.414063 340.269531 556.117188 340.464844 556.117188 340.851563 C 556.117188 341.234375 556.265625 341.429688 556.867188 341.429688 L 571.261719 341.429688 C 571.261719 348.570313 567.363281 352.238281 559.714844 352.238281 C 559.414063 352.238281 559.113281 352.238281 558.515625 352.042969 L 557.316406 352.042969 C 556.566406 352.042969 556.117188 352.238281 556.117188 352.816406 C 556.117188 354.167969 558.515625 354.746094 563.3125 354.746094 C 567.8125 354.746094 571.261719 353.398438 573.511719 350.695313 C 575.457031 348.378906 576.359375 345.289063 576.359375 341.429688 L 597.050781 341.429688 L 597.050781 317.109375 C 597.050781 316.722656 596.75 316.53125 596.453125 316.53125 "/>
<path style=" stroke:none;fill-rule:nonzero;fill:rgb(5.085754%,50.305176%,78.425598%);fill-opacity:1;" d="M 610.847656 286.613281 C 610.398438 287 609.949219 287 609.648438 287 C 608.898438 287 608.449219 286.804688 608.449219 286.035156 C 608.449219 285.070313 609.046875 284.488281 610.097656 284.488281 C 610.246094 284.488281 610.398438 284.683594 610.699219 284.875 C 610.996094 285.070313 611.148438 285.070313 611.296875 285.070313 C 611.597656 285.070313 611.597656 284.875 611.597656 284.683594 C 611.597656 284.296875 611.449219 284.101563 610.996094 283.71875 C 610.546875 283.332031 610.246094 282.945313 610.246094 282.945313 C 610.246094 282.753906 610.398438 282.367188 610.699219 281.789063 C 610.996094 281.402344 611.296875 281.015625 611.296875 280.824219 C 611.296875 279.46875 610.996094 278.699219 610.546875 278.699219 C 610.246094 278.699219 610.246094 279.085938 610.097656 279.664063 C 610.097656 280.433594 609.949219 281.015625 609.648438 281.402344 C 608.75 281.980469 608 282.558594 607.097656 283.136719 C 606.050781 283.910156 605.449219 284.683594 605.449219 285.648438 C 605.449219 285.839844 605.597656 286.226563 605.898438 287.191406 C 605.300781 287.191406 605 287.382813 605 287.382813 C 604.550781 287.382813 604.097656 287 603.800781 286.417969 C 603.5 285.839844 603.199219 285.648438 603.199219 285.648438 C 602.75 285.648438 602.449219 286.035156 602.449219 286.804688 C 602.449219 287.191406 602.449219 287.382813 602.601563 287.578125 C 602 287.578125 601.699219 287.769531 601.550781 287.769531 C 600.800781 288.15625 600.203125 288.347656 599.453125 288.542969 C 599.152344 288.734375 599 288.929688 599 289.121094 C 599 289.3125 599.453125 289.507813 600.5 289.507813 L 612.496094 289.507813 C 613.097656 289.507813 613.546875 289.3125 613.546875 289.121094 C 613.546875 289.121094 612.796875 288.15625 611.449219 286.226563 C 611.449219 286.226563 611.148438 286.417969 610.847656 286.613281 "/>
<path style=" stroke:none;fill-rule:nonzero;fill:rgb(5.085754%,50.305176%,78.425598%);fill-opacity:1;" d="M 608.898438 291.246094 C 608.597656 291.246094 608.296875 291.628906 608.148438 292.015625 C 607.847656 293.175781 607.699219 293.753906 607.699219 293.753906 C 607.546875 294.140625 607.097656 294.71875 606.199219 295.875 C 605.449219 296.84375 605.148438 297.613281 605.148438 298.195313 C 605.148438 298.386719 605.148438 298.578125 605.300781 298.964844 C 605.300781 299.351563 605.449219 299.542969 605.449219 299.738281 C 605.449219 300.125 605 300.316406 604.101563 300.703125 C 602.898438 301.089844 602.148438 301.28125 601.699219 301.667969 C 600.949219 302.054688 600.5 302.824219 600.5 303.789063 C 600.5 304.371094 600.652344 304.5625 601.101563 304.5625 C 601.25 304.5625 601.699219 304.371094 602.148438 304.175781 C 602.601563 303.984375 602.898438 303.789063 603.199219 303.789063 C 603.949219 303.789063 604.25 304.5625 604.25 306.105469 L 604.25 341.429688 L 609.347656 341.429688 L 609.347656 292.015625 C 609.347656 291.4375 609.199219 291.246094 608.898438 291.246094 "/>
<path style=" stroke:none;fill-rule:nonzero;fill:rgb(5.085754%,50.305176%,78.425598%);fill-opacity:1;" d="M 640.6875 308.617188 C 641.585938 308.617188 642.335938 308.421875 642.9375 307.652344 C 643.535156 307.074219 643.984375 306.300781 643.984375 305.527344 C 643.984375 304.5625 643.535156 303.792969 642.9375 303.210938 C 642.335938 302.4375 641.585938 302.246094 640.6875 302.246094 C 639.785156 302.246094 639.039063 302.4375 638.4375 303.210938 C 637.839844 303.792969 637.539063 304.5625 637.539063 305.527344 C 637.539063 306.300781 637.839844 307.074219 638.4375 307.652344 C 639.039063 308.421875 639.785156 308.617188 640.6875 308.617188 "/>
<path style=" stroke:none;fill-rule:nonzero;fill:rgb(5.085754%,50.305176%,78.425598%);fill-opacity:1;" d="M 630.492188 307.652344 C 631.089844 308.421875 631.839844 308.617188 632.738281 308.617188 C 633.640625 308.617188 634.390625 308.421875 634.988281 307.652344 C 635.589844 307.074219 635.886719 306.300781 635.886719 305.527344 C 635.886719 304.5625 635.589844 303.792969 634.988281 303.210938 C 634.390625 302.4375 633.640625 302.246094 632.738281 302.246094 C 631.839844 302.246094 631.089844 302.4375 630.339844 303.210938 C 629.742188 303.792969 629.441406 304.5625 629.441406 305.527344 C 629.441406 306.300781 629.742188 307.074219 630.492188 307.652344 "/>
<path style=" stroke:none;fill-rule:nonzero;fill:rgb(5.085754%,50.305176%,78.425598%);fill-opacity:1;" d="M 641.285156 330.425781 L 634.6875 330.425781 C 635.289063 328.691406 636.039063 327.726563 636.9375 327.339844 C 637.839844 326.953125 638.4375 326.566406 638.738281 326.179688 C 638.886719 325.601563 639.1875 325.214844 639.488281 324.636719 C 639.636719 324.441406 640.238281 324.058594 641.285156 323.476563 Z M 708.765625 326.566406 C 707.265625 325.410156 704.414063 324.828125 700.21875 324.828125 L 664.828125 324.828125 L 684.023438 311.316406 C 685.820313 310.160156 687.019531 309.386719 687.769531 309.386719 C 688.371094 309.386719 688.820313 309.773438 688.972656 310.546875 C 689.269531 311.316406 689.570313 311.511719 689.722656 311.511719 C 690.019531 311.511719 690.320313 311.316406 690.621094 310.738281 C 690.917969 310.160156 691.070313 309.386719 691.070313 308.617188 C 691.070313 307.84375 690.917969 307.074219 690.46875 306.492188 C 690.167969 305.722656 690.019531 305.335938 690.019531 305.335938 C 690.019531 305.335938 690.46875 304.371094 691.371094 302.828125 C 692.269531 301.089844 692.71875 300.316406 692.71875 300.125 C 692.867188 299.929688 693.167969 299.542969 693.617188 299.160156 C 694.070313 298.773438 694.21875 298.386719 694.21875 298.191406 C 694.21875 297.808594 694.070313 297.613281 693.917969 297.613281 C 693.769531 297.613281 693.46875 297.808594 693.019531 298.191406 L 656.433594 324.828125 L 656.433594 330.8125 L 700.367188 330.8125 C 702.617188 330.8125 704.265625 331.007813 704.863281 331.199219 C 705.765625 331.585938 706.214844 332.355469 706.214844 333.515625 L 706.214844 335.640625 L 646.535156 335.640625 L 646.535156 312.089844 C 646.535156 311.511719 646.386719 311.316406 646.085938 311.316406 C 645.785156 311.316406 645.484375 311.703125 645.1875 312.285156 C 645.035156 313.441406 644.734375 314.019531 644.285156 314.40625 C 643.234375 315.757813 642.335938 316.722656 641.4375 317.109375 C 640.085938 317.6875 639.339844 317.882813 639.1875 318.074219 C 638.136719 318.847656 636.9375 320.390625 635.589844 322.898438 C 635.4375 323.09375 634.988281 323.285156 634.238281 323.671875 C 633.339844 323.867188 632.589844 324.25 632.140625 324.828125 C 631.238281 325.601563 630.492188 326.953125 629.890625 328.691406 C 628.992188 330.425781 628.539063 331.585938 628.089844 332.164063 C 627.640625 332.742188 626.890625 333.515625 626.140625 333.902344 C 625.542969 334.289063 625.390625 334.671875 625.390625 335.058594 C 625.390625 335.445313 625.691406 335.640625 626.140625 335.640625 L 641.285156 335.640625 L 641.285156 341.429688 L 711.164063 341.429688 L 711.164063 333.902344 C 711.164063 330.234375 710.414063 327.917969 708.765625 326.566406 "/>
<path style=" stroke:none;fill-rule:nonzero;fill:rgb(5.085754%,50.305176%,78.425598%);fill-opacity:1;" d="M 757.046875 306.492188 C 757.949219 306.492188 758.699219 306.300781 759.296875 305.527344 C 759.898438 304.949219 760.347656 304.175781 760.347656 303.40625 C 760.347656 302.441406 759.898438 301.667969 759.296875 301.089844 C 758.699219 300.316406 757.949219 300.125 757.046875 300.125 C 756.148438 300.125 755.398438 300.507813 754.796875 301.089844 C 754.199219 301.667969 753.75 302.441406 753.75 303.40625 C 753.75 304.175781 754.199219 304.949219 754.796875 305.527344 C 755.398438 306.300781 756.148438 306.492188 757.046875 306.492188 "/>
<path style=" stroke:none;fill-rule:nonzero;fill:rgb(5.085754%,50.305176%,78.425598%);fill-opacity:1;" d="M 757.949219 310.738281 C 757.949219 311.511719 758.246094 312.285156 758.847656 312.863281 C 759.449219 313.632813 760.195313 313.828125 761.097656 313.828125 C 761.996094 313.828125 762.746094 313.632813 763.496094 312.863281 C 764.09375 312.285156 764.394531 311.511719 764.394531 310.738281 C 764.394531 309.773438 764.09375 309.003906 763.496094 308.421875 C 762.746094 307.84375 761.996094 307.457031 761.097656 307.457031 C 760.195313 307.457031 759.449219 307.84375 758.847656 308.421875 C 758.246094 309.003906 757.949219 309.773438 757.949219 310.738281 "/>
<path style=" stroke:none;fill-rule:nonzero;fill:rgb(5.085754%,50.305176%,78.425598%);fill-opacity:1;" d="M 772.941406 316.722656 C 772.792969 316.722656 772.492188 317.109375 772.492188 317.6875 C 772.34375 318.460938 772.34375 319.039063 772.191406 319.230469 C 772.042969 319.617188 771.59375 320.195313 770.84375 321.160156 C 770.242188 321.742188 769.941406 322.515625 769.941406 323.09375 L 769.941406 323.863281 C 770.09375 324.058594 770.09375 324.25 770.09375 324.445313 C 770.09375 324.636719 769.191406 325.023438 767.542969 325.601563 C 765.894531 325.988281 765.144531 326.761719 765.144531 327.917969 C 765.144531 328.304688 765.296875 328.496094 765.59375 328.496094 L 766.195313 328.496094 C 766.492188 328.304688 766.644531 328.304688 766.792969 328.304688 C 767.84375 328.304688 768.445313 328.882813 768.445313 330.039063 L 768.445313 335.640625 L 761.546875 335.253906 L 761.695313 318.847656 C 761.695313 318.265625 761.546875 318.074219 761.246094 318.074219 C 760.945313 318.074219 760.796875 318.265625 760.796875 318.652344 C 760.796875 318.847656 760.644531 319.230469 760.644531 319.425781 C 760.496094 320.195313 759.898438 320.96875 759.296875 321.742188 C 758.695313 322.320313 758.546875 323.285156 758.546875 324.828125 L 758.546875 325.601563 C 758.546875 325.988281 757.648438 326.375 755.847656 326.953125 C 754.199219 327.53125 753.300781 328.304688 753.300781 329.269531 C 753.300781 329.65625 753.449219 329.847656 753.898438 329.847656 L 754.796875 329.847656 C 755.097656 329.65625 755.398438 329.65625 755.546875 329.65625 C 756.296875 329.65625 756.597656 330.039063 756.597656 331.007813 L 756.597656 335.640625 L 749.101563 335.640625 L 749.101563 319.039063 C 749.101563 318.460938 748.949219 318.074219 748.648438 318.074219 C 748.351563 318.074219 748.199219 318.265625 748.199219 318.652344 C 748.199219 318.847656 748.050781 319.230469 748.050781 319.425781 C 747.75 320.195313 747.300781 321.160156 746.699219 321.742188 C 746.101563 322.320313 745.949219 323.285156 745.949219 324.828125 L 745.949219 325.601563 C 745.949219 325.988281 745.050781 326.375 743.402344 326.953125 C 741.601563 327.53125 740.851563 328.304688 740.851563 329.269531 C 740.851563 329.65625 741.003906 329.847656 741.453125 329.847656 L 742.203125 329.847656 C 742.503906 329.65625 742.800781 329.65625 742.953125 329.65625 C 743.703125 329.65625 744.003906 330.039063 744.003906 331.007813 L 744.003906 335.640625 L 736.070313 335.640625 C 735.777344 334.628906 735.375 333.664063 734.855469 332.742188 C 733.804688 331.199219 732.757813 329.65625 731.707031 328.109375 C 730.507813 326.375 729.90625 324.636719 729.90625 323.09375 C 729.90625 322.707031 730.058594 322.515625 730.058594 321.933594 C 730.058594 321.355469 730.207031 321.160156 730.207031 320.777344 C 730.207031 320.390625 730.058594 320.195313 729.90625 320.195313 C 729.457031 320.195313 728.855469 320.96875 727.957031 322.515625 C 727.207031 324.058594 726.90625 325.410156 726.90625 326.375 L 726.90625 328.691406 C 726.90625 328.882813 726.15625 329.269531 724.65625 330.425781 C 723.160156 331.390625 722.558594 332.359375 722.558594 333.324219 C 722.558594 333.710938 722.710938 333.902344 723.007813 333.902344 C 723.160156 333.902344 723.609375 333.902344 724.210938 333.710938 L 725.558594 333.710938 C 727.058594 333.710938 728.40625 334.289063 729.605469 335.640625 C 730.957031 337.183594 731.554688 338.726563 731.554688 340.464844 C 731.554688 345.097656 729.308594 348.378906 724.957031 350.695313 C 723.460938 351.464844 721.359375 352.046875 718.660156 352.238281 C 716.710938 352.429688 715.660156 352.816406 715.660156 353.394531 C 715.660156 354.167969 717.011719 354.554688 719.710938 354.554688 C 724.058594 354.554688 727.808594 353.589844 730.65625 351.851563 C 734.3125 349.585938 736.25 346.058594 736.59375 341.414063 L 748.199219 341.25 L 748.199219 341.429688 L 773.542969 341.429688 L 773.542969 317.6875 C 773.542969 317.109375 773.390625 316.722656 772.941406 316.722656 "/>
<path style=" stroke:none;fill-rule:nonzero;fill:rgb(5.085754%,50.305176%,78.425598%);fill-opacity:1;" d="M 753 313.828125 C 753.75 313.828125 754.648438 313.636719 755.246094 312.863281 C 755.847656 312.285156 756.148438 311.511719 756.148438 310.738281 C 756.148438 309.773438 755.847656 309 755.246094 308.421875 C 754.648438 307.84375 753.75 307.457031 753 307.457031 C 752.097656 307.457031 751.351563 307.84375 750.601563 308.421875 C 750 309 749.699219 309.773438 749.699219 310.738281 C 749.699219 311.511719 750 312.285156 750.601563 312.863281 C 751.351563 313.636719 752.097656 313.828125 753 313.828125 "/>
<path style=" stroke:none;fill-rule:nonzero;fill:rgb(5.085754%,50.305176%,78.425598%);fill-opacity:1;" d="M 73.878906 200.527344 L 137.609375 200.527344 L 138.058594 219.441406 L 135.359375 219.441406 C 134.160156 213.457031 132.511719 209.597656 130.410156 207.863281 C 128.460938 206.125 124.113281 205.160156 117.664063 205.160156 L 111.367188 205.160156 L 111.367188 261.90625 C 111.367188 266.152344 112.117188 268.855469 113.316406 269.820313 C 114.664063 270.785156 117.664063 271.558594 122.015625 271.941406 L 122.015625 273.875 L 89.324219 273.875 L 89.324219 271.941406 C 94.121094 271.558594 97.121094 270.785156 98.320313 269.625 C 99.519531 268.277344 100.121094 265.378906 100.121094 260.554688 L 100.121094 205.160156 L 93.824219 205.160156 C 87.675781 205.160156 83.328125 206.125 81.078125 207.863281 C 78.828125 209.597656 77.179688 213.457031 75.980469 219.441406 L 73.429688 219.441406 "/>
<path style=" stroke:none;fill-rule:nonzero;fill:rgb(5.085754%,50.305176%,78.425598%);fill-opacity:1;" d="M 155.453125 273.875 L 155.453125 271.941406 C 152.753906 271.75 150.953125 271.363281 150.054688 270.976563 C 148.554688 270.207031 147.804688 268.855469 147.804688 266.925781 C 147.804688 266.152344 147.957031 264.800781 148.554688 263.257813 C 149.152344 261.519531 150.953125 257.082031 153.953125 249.9375 L 183.34375 249.9375 L 187.839844 260.554688 C 188.589844 262.097656 189.042969 263.644531 189.488281 264.996094 C 189.789063 266.34375 189.941406 267.117188 189.941406 267.695313 C 189.941406 269.433594 189.488281 270.398438 188.589844 270.785156 C 187.542969 271.171875 185.441406 271.558594 182.144531 271.941406 L 182.144531 273.875 L 210.632813 273.875 L 210.632813 271.941406 C 208.085938 271.558594 206.285156 270.785156 205.085938 269.820313 C 204.035156 268.855469 202.6875 266.152344 200.886719 262.097656 L 172.847656 199.367188 L 170.597656 199.367188 L 147.207031 253.800781 C 143.757813 261.90625 141.207031 266.925781 139.707031 268.660156 C 138.207031 270.398438 136.109375 271.558594 133.109375 271.941406 L 133.109375 273.875 Z M 155.902344 245.5 L 168.648438 215.003906 L 181.542969 245.5 "/>
<path style=" stroke:none;fill-rule:nonzero;fill:rgb(5.085754%,50.305176%,78.425598%);fill-opacity:1;" d="M 214.382813 271.941406 C 219.03125 271.558594 221.878906 270.785156 222.929688 269.433594 C 223.980469 268.277344 224.578125 265.1875 224.578125 260.554688 L 224.578125 212.492188 C 224.578125 208.441406 223.980469 205.929688 222.777344 204.773438 C 221.582031 203.421875 218.730469 202.84375 214.382813 202.457031 L 214.382813 200.527344 L 246.320313 200.527344 L 246.320313 202.457031 C 241.972656 202.648438 239.125 203.421875 237.925781 204.582031 C 236.574219 205.929688 235.976563 208.441406 235.976563 212.492188 L 235.976563 235.269531 C 242.871094 229.480469 248.570313 224.460938 253.070313 220.40625 C 261.015625 212.878906 264.914063 208.246094 264.914063 206.125 C 264.914063 204.582031 264.316406 203.613281 262.964844 203.230469 C 261.617188 202.648438 259.667969 202.457031 257.265625 202.457031 L 257.265625 200.527344 L 286.957031 200.527344 L 286.957031 202.457031 C 283.210938 202.84375 280.359375 203.613281 278.261719 204.582031 C 276.160156 205.546875 273.3125 207.667969 269.714844 211.144531 L 247.519531 231.214844 L 274.363281 259.78125 C 279.308594 264.800781 282.609375 268.082031 284.40625 269.433594 C 286.207031 270.59375 288.757813 271.558594 292.207031 271.941406 L 292.207031 273.875 L 257.71875 273.875 L 257.71875 271.941406 C 260.867188 271.75 262.964844 271.558594 264.015625 271.171875 C 265.214844 270.785156 265.664063 270.011719 265.664063 268.855469 C 265.664063 268.277344 265.363281 267.3125 264.613281 265.960938 C 263.863281 264.800781 262.816406 263.257813 261.167969 261.714844 L 239.574219 238.550781 L 235.976563 241.832031 L 235.976563 261.90625 C 235.976563 265.960938 236.574219 268.660156 237.773438 269.628906 C 239.125 270.785156 241.824219 271.558594 246.171875 271.941406 L 246.171875 273.875 L 214.382813 273.875 "/>
<path style=" stroke:none;fill-rule:nonzero;fill:rgb(5.085754%,50.305176%,78.425598%);fill-opacity:1;" d="M 294.90625 273.875 L 326.242188 273.875 L 326.242188 271.941406 C 322.046875 271.558594 319.195313 270.785156 317.996094 269.628906 C 316.648438 268.660156 316.046875 265.960938 316.046875 261.90625 L 316.046875 240.09375 L 320.695313 239.902344 L 348.738281 273.875 L 367.179688 273.875 L 367.179688 271.941406 C 365.082031 271.75 363.132813 271.171875 361.78125 270.398438 C 360.28125 269.628906 358.933594 268.273438 357.433594 266.539063 L 334.339844 238.550781 C 340.488281 237.585938 345.4375 235.65625 349.1875 232.761719 C 352.785156 229.671875 354.585938 225.425781 354.585938 220.019531 C 354.585938 211.722656 350.386719 205.929688 342.289063 203.035156 C 337.941406 201.296875 332.542969 200.527344 326.09375 200.527344 L 294.90625 200.527344 L 294.90625 202.457031 C 299.105469 202.84375 301.652344 203.617188 302.851563 204.773438 C 304.203125 205.929688 304.800781 208.632813 304.800781 212.492188 L 304.800781 260.554688 C 304.800781 265.1875 304.203125 268.082031 303.152344 269.433594 C 302.101563 270.59375 299.253906 271.558594 294.90625 271.941406 Z M 316.046875 236.042969 L 316.046875 208.441406 C 316.046875 206.703125 316.496094 205.738281 317.097656 205.160156 C 317.847656 204.773438 319.796875 204.386719 322.945313 204.386719 C 327.742188 204.386719 331.492188 205.160156 334.339844 206.511719 C 339.589844 208.828125 342.289063 213.265625 342.289063 219.828125 C 342.289063 226.585938 339.289063 231.214844 333.441406 233.53125 C 329.992188 234.882813 324.144531 235.847656 316.046875 236.042969 "/>
<path style=" stroke:none;fill-rule:nonzero;fill:rgb(5.085754%,50.305176%,78.425598%);fill-opacity:1;" d="M 370.179688 271.941406 C 374.226563 271.363281 376.925781 270.785156 378.125 269.628906 C 379.324219 268.660156 379.925781 266.152344 379.925781 261.90625 L 379.925781 212.492188 C 379.925781 208.632813 379.324219 205.929688 378.125 204.773438 C 376.925781 203.613281 374.226563 202.84375 370.179688 202.457031 L 370.179688 200.527344 L 430.007813 200.527344 L 430.460938 215.96875 L 427.460938 215.96875 C 426.558594 211.144531 425.210938 208.054688 423.261719 206.703125 C 421.3125 205.160156 417.113281 204.386719 410.664063 204.386719 L 394.921875 204.386719 C 393.269531 204.386719 392.222656 204.773438 391.921875 205.351563 C 391.472656 205.738281 391.320313 206.894531 391.320313 208.246094 L 391.320313 233.148438 L 409.015625 233.148438 C 413.8125 233.148438 416.8125 232.566406 418.164063 231.023438 C 419.511719 229.671875 420.5625 226.777344 421.3125 222.53125 L 424.011719 222.53125 L 424.011719 248.394531 L 421.3125 248.394531 C 420.410156 243.957031 419.363281 241.058594 418.011719 239.710938 C 416.8125 238.359375 413.8125 237.585938 409.015625 237.585938 L 391.320313 237.585938 L 391.320313 265.378906 C 391.320313 267.503906 391.921875 268.855469 393.421875 269.242188 C 394.769531 269.628906 399.117188 269.820313 406.167969 269.820313 C 413.8125 269.820313 419.511719 269.046875 423.109375 267.3125 C 426.859375 265.765625 430.160156 261.714844 433.007813 255.34375 L 436.007813 255.34375 L 431.058594 273.875 L 370.179688 273.875 "/>
<path style=" stroke:none;fill-rule:nonzero;fill:rgb(5.085754%,50.305176%,78.425598%);fill-opacity:1;" d="M 438.707031 271.941406 C 442.90625 271.363281 445.453125 270.785156 446.804688 269.628906 C 448.003906 268.660156 448.601563 266.152344 448.601563 261.90625 L 448.601563 212.492188 C 448.601563 208.632813 448.003906 205.929688 446.804688 204.773438 C 445.605469 203.613281 442.90625 202.84375 438.707031 202.457031 L 438.707031 200.527344 L 498.6875 200.527344 L 499.136719 215.96875 L 496.136719 215.96875 C 495.238281 211.144531 493.886719 208.054688 491.9375 206.703125 C 489.988281 205.160156 485.789063 204.386719 479.34375 204.386719 L 463.597656 204.386719 C 461.949219 204.386719 460.898438 204.773438 460.449219 205.351563 C 460.148438 205.738281 459.847656 206.894531 459.847656 208.246094 L 459.847656 233.148438 L 477.691406 233.148438 C 482.492188 233.148438 485.488281 232.566406 486.839844 231.023438 C 488.039063 229.671875 489.089844 226.777344 489.988281 222.53125 L 492.6875 222.53125 L 492.6875 248.394531 L 489.988281 248.394531 C 489.089844 243.957031 488.039063 241.058594 486.691406 239.710938 C 485.488281 238.359375 482.492188 237.585938 477.691406 237.585938 L 459.847656 237.585938 L 459.847656 265.378906 C 459.847656 267.503906 460.597656 268.855469 462.097656 269.242188 C 463.449219 269.628906 467.796875 269.820313 474.84375 269.820313 C 482.492188 269.820313 488.1875 269.046875 491.789063 267.3125 C 495.535156 265.765625 498.6875 261.714844 501.683594 255.34375 L 504.683594 255.34375 L 499.734375 273.875 L 438.707031 273.875 "/>
<path style=" stroke:none;fill-rule:nonzero;fill:rgb(5.085754%,50.305176%,78.425598%);fill-opacity:1;" d="M 507.234375 273.875 L 538.570313 273.875 L 538.570313 271.941406 C 534.222656 271.558594 531.523438 270.785156 530.175781 269.628906 C 528.976563 268.660156 528.375 265.960938 528.375 261.90625 L 528.375 240.09375 L 532.875 239.902344 L 561.066406 273.875 L 579.507813 273.875 L 579.507813 271.941406 C 577.257813 271.75 575.460938 271.171875 573.960938 270.398438 C 572.609375 269.628906 571.109375 268.273438 569.761719 266.539063 L 546.519531 238.550781 C 552.816406 237.585938 557.765625 235.65625 561.363281 232.761719 C 564.960938 229.671875 566.761719 225.425781 566.761719 220.019531 C 566.761719 211.722656 562.714844 205.929688 554.464844 203.035156 C 550.265625 201.296875 544.871094 200.527344 538.273438 200.527344 L 507.234375 200.527344 L 507.234375 202.457031 C 511.28125 202.84375 513.980469 203.617188 515.179688 204.773438 C 516.378906 205.929688 516.980469 208.632813 516.980469 212.492188 L 516.980469 260.554688 C 516.980469 265.1875 516.53125 268.082031 515.328125 269.433594 C 514.28125 270.59375 511.582031 271.558594 507.234375 271.941406 Z M 528.375 236.042969 L 528.375 208.441406 C 528.375 206.703125 528.675781 205.738281 529.425781 205.160156 C 530.175781 204.773438 532.125 204.386719 535.273438 204.386719 C 539.921875 204.386719 543.820313 205.160156 546.667969 206.511719 C 551.917969 208.828125 554.617188 213.265625 554.617188 219.828125 C 554.617188 226.585938 551.617188 231.214844 545.769531 233.53125 C 542.171875 234.882813 536.472656 235.847656 528.375 236.042969 "/>
<path style=" stroke:none;fill-rule:nonzero;fill:rgb(5.085754%,50.305176%,78.425598%);fill-opacity:1;" d="M 164.300781 171.382813 C 162.800781 171.382813 161.300781 171.960938 160.25 173.117188 C 159.050781 174.277344 158.453125 175.628906 158.453125 176.976563 C 158.453125 178.714844 159.050781 180.066406 160.25 181.417969 C 161.300781 182.574219 162.800781 183.15625 164.300781 183.15625 C 165.949219 183.15625 167.296875 182.574219 168.5 181.417969 C 169.546875 180.066406 170.148438 178.714844 170.148438 176.976563 C 170.148438 175.628906 169.546875 174.277344 168.5 173.117188 C 167.296875 171.960938 165.949219 171.382813 164.300781 171.382813 "/>
<path style=" stroke:none;fill-rule:nonzero;fill:rgb(5.085754%,50.305176%,78.425598%);fill-opacity:1;" d="M 148.554688 171.382813 C 146.90625 171.382813 145.40625 171.960938 144.207031 173.117188 C 143.15625 174.277344 142.554688 175.628906 142.554688 176.976563 C 142.554688 178.714844 143.15625 180.066406 144.207031 181.417969 C 145.40625 182.574219 146.90625 183.15625 148.554688 183.15625 C 150.203125 183.15625 151.554688 182.574219 152.753906 181.417969 C 153.800781 180.066406 154.402344 178.714844 154.402344 176.976563 C 154.402344 175.628906 153.800781 174.277344 152.753906 173.117188 C 151.554688 171.960938 150.203125 171.382813 148.554688 171.382813 "/>
<path style=" stroke:none;fill-rule:nonzero;fill:rgb(5.085754%,50.305176%,78.425598%);fill-opacity:1;" d="M 169.699219 118.300781 C 169.097656 118.300781 168.796875 118.878906 168.648438 119.652344 C 168.496094 120.425781 168.347656 121.195313 168.347656 121.773438 C 168.199219 122.738281 167.449219 123.898438 166.097656 125.441406 C 164.898438 126.988281 164.148438 128.722656 164.148438 130.460938 L 164.148438 132.585938 C 164.148438 133.550781 162.800781 134.515625 159.800781 136.058594 C 156.800781 137.410156 155.300781 139.148438 155.300781 141.269531 C 155.300781 141.65625 155.601563 142.042969 156.050781 142.042969 C 156.5 142.042969 156.953125 141.847656 157.703125 141.65625 C 158.300781 141.464844 158.902344 141.269531 159.203125 141.269531 C 161 141.269531 161.898438 142.8125 161.898438 146.09375 L 161.898438 152.65625 L 132.808594 152.65625 L 132.808594 152.851563 L 109.75 152.851563 C 109.234375 151.042969 108.523438 149.304688 107.617188 147.640625 C 105.820313 144.9375 103.871094 142.234375 102.070313 139.53125 C 99.972656 136.445313 98.921875 133.550781 98.921875 130.652344 C 98.921875 130.269531 98.921875 129.496094 99.070313 128.722656 C 99.222656 127.953125 99.371094 127.179688 99.371094 126.792969 C 99.371094 126.023438 99.222656 125.636719 98.769531 125.636719 C 97.871094 125.636719 96.824219 126.988281 95.324219 129.6875 C 93.972656 132.390625 93.222656 134.707031 93.222656 136.636719 L 93.222656 140.691406 C 93.222656 140.882813 92.023438 141.847656 89.324219 143.585938 C 86.773438 145.324219 85.425781 147.0625 85.425781 148.605469 C 85.425781 149.378906 85.726563 149.761719 86.175781 149.761719 C 86.773438 149.761719 87.523438 149.761719 88.574219 149.570313 C 89.625 149.378906 90.375 149.378906 90.972656 149.378906 C 93.523438 149.378906 95.921875 150.535156 98.171875 153.042969 C 100.421875 155.359375 101.46875 158.257813 101.46875 161.34375 C 101.46875 169.453125 97.570313 175.433594 89.773438 179.488281 C 87.074219 180.839844 83.328125 181.804688 78.679688 182.191406 C 75.230469 182.578125 73.429688 183.15625 73.429688 184.121094 C 73.429688 185.472656 75.828125 186.050781 80.628906 186.050781 C 88.425781 186.050781 95.023438 184.507813 100.121094 181.417969 C 106.726563 177.34375 110.175781 171.148438 110.695313 162.695313 L 170.746094 162.695313 L 170.746094 120.230469 C 170.746094 119.074219 170.296875 118.300781 169.699219 118.300781 "/>
<path style=" stroke:none;fill-rule:nonzero;fill:rgb(5.085754%,50.305176%,78.425598%);fill-opacity:1;" d="M 548.320313 112.703125 C 549.96875 112.703125 551.316406 112.125 552.515625 110.964844 C 553.566406 109.808594 554.167969 108.265625 554.167969 106.71875 C 554.167969 104.984375 553.566406 103.632813 552.367188 102.472656 C 551.316406 101.121094 549.820313 100.542969 548.320313 100.542969 C 546.519531 100.542969 545.167969 101.121094 543.96875 102.472656 C 542.769531 103.632813 542.320313 104.984375 542.320313 106.71875 C 542.320313 108.265625 542.769531 109.808594 543.96875 110.964844 C 545.167969 112.125 546.519531 112.703125 548.320313 112.703125 "/>
<path style=" stroke:none;fill-rule:nonzero;fill:rgb(5.085754%,50.305176%,78.425598%);fill-opacity:1;" d="M 553.265625 119.84375 C 552.667969 119.84375 552.21875 120.230469 552.066406 121.195313 C 551.46875 122.933594 551.167969 124.089844 551.167969 124.285156 C 550.867188 124.671875 550.117188 125.828125 548.46875 127.953125 C 547.269531 129.496094 546.667969 131.039063 546.667969 132.003906 C 546.667969 132.390625 546.667969 132.777344 546.820313 133.355469 C 546.820313 133.933594 546.96875 134.515625 546.96875 134.902344 C 546.96875 135.285156 546.21875 135.671875 544.71875 136.25 C 542.621094 136.832031 541.121094 137.410156 540.371094 137.796875 C 538.871094 138.761719 538.121094 140.113281 538.121094 141.847656 C 538.121094 142.621094 538.421875 143.007813 539.171875 143.007813 C 539.621094 143.007813 540.222656 142.8125 541.121094 142.429688 C 541.871094 142.042969 542.621094 142.042969 542.921875 142.042969 C 544.269531 142.042969 544.871094 144.9375 544.871094 150.921875 L 544.871094 152.660156 L 515.929688 152.660156 L 515.929688 152.851563 L 494.1875 152.851563 L 494.1875 149.570313 C 494.1875 143.394531 492.6875 139.148438 489.839844 136.832031 C 486.988281 134.902344 481.890625 133.933594 474.542969 133.933594 L 410.816406 133.933594 L 445.605469 110 C 448.753906 107.878906 451 106.71875 452.351563 106.71875 C 453.25 106.71875 454 107.300781 454.449219 108.652344 C 454.902344 109.808594 455.351563 110.386719 455.800781 110.386719 C 456.25 110.386719 456.699219 109.808594 457.300781 108.84375 C 457.75 107.878906 458.046875 106.527344 458.046875 104.984375 C 458.046875 103.824219 457.75 102.472656 457.148438 101.316406 C 456.550781 100.15625 456.25 99.578125 456.25 99.578125 C 456.25 99.386719 457 97.839844 458.648438 94.945313 C 460.296875 92.050781 461.046875 90.507813 461.046875 90.3125 C 461.347656 89.925781 461.796875 89.15625 462.546875 88.382813 C 463.449219 87.804688 463.746094 87.03125 463.746094 86.644531 C 463.746094 86.261719 463.597656 85.875 463.148438 85.875 C 462.996094 85.875 462.398438 86.261719 461.496094 86.644531 L 396.121094 133.933594 L 396.121094 144.359375 L 474.84375 144.359375 C 479.042969 144.359375 481.742188 144.550781 482.941406 144.9375 C 484.589844 145.515625 485.488281 146.867188 485.488281 148.992188 L 485.488281 152.660156 L 376.925781 152.660156 L 376.925781 152.851563 L 214.113281 152.851563 C 213.597656 151.042969 212.890625 149.304688 211.984375 147.640625 C 210.035156 144.9375 208.234375 142.234375 206.285156 139.535156 C 204.1875 136.445313 203.136719 133.550781 203.136719 130.65625 C 203.136719 130.269531 203.285156 129.496094 203.4375 128.722656 C 203.585938 127.953125 203.585938 127.179688 203.585938 126.792969 C 203.585938 126.023438 203.4375 125.636719 203.136719 125.636719 C 202.234375 125.636719 201.035156 126.988281 199.6875 129.6875 C 198.1875 132.390625 197.585938 134.707031 197.585938 136.636719 L 197.585938 138.570313 C 197.4375 139.535156 197.4375 140.113281 197.585938 140.691406 C 197.585938 140.882813 196.238281 141.847656 193.6875 143.585938 C 190.988281 145.324219 189.789063 147.058594 189.789063 148.605469 C 189.789063 149.378906 189.941406 149.761719 190.539063 149.761719 C 190.988281 149.761719 191.738281 149.761719 192.789063 149.570313 C 193.839844 149.378906 194.738281 149.378906 195.1875 149.378906 C 197.738281 149.378906 200.136719 150.535156 202.386719 153.042969 C 204.636719 155.359375 205.683594 158.257813 205.683594 161.34375 C 205.683594 169.449219 201.785156 175.433594 193.988281 179.488281 C 191.289063 180.839844 187.691406 181.804688 182.894531 182.191406 C 179.445313 182.578125 177.644531 183.15625 177.644531 184.121094 C 177.644531 185.472656 180.042969 186.050781 184.84375 186.050781 C 192.640625 186.050781 199.238281 184.507813 204.484375 181.417969 C 210.957031 177.34375 214.515625 171.148438 215.058594 162.695313 L 554.167969 162.695313 L 554.167969 121.003906 C 554.167969 120.230469 553.867188 119.84375 553.265625 119.84375 "/>
<path style=" stroke:none;fill-rule:nonzero;fill:rgb(5.085754%,50.305176%,78.425598%);fill-opacity:1;" d="M 531.972656 112.703125 C 533.625 112.703125 535.125 112.125 536.324219 110.964844 C 537.371094 109.808594 537.972656 108.265625 537.972656 106.71875 C 537.972656 104.984375 537.371094 103.632813 536.171875 102.472656 C 534.972656 101.121094 533.625 100.542969 531.972656 100.542969 C 530.324219 100.542969 528.976563 101.121094 527.777344 102.472656 C 526.574219 103.632813 525.976563 104.984375 525.976563 106.71875 C 525.976563 108.265625 526.574219 109.808594 527.777344 110.964844 C 528.976563 112.125 530.324219 112.703125 531.972656 112.703125 "/>
<path style=" stroke:none;fill-rule:nonzero;fill:rgb(92.904663%,9.991455%,17.790222%);fill-opacity:1;" d="M 226.226563 496.035156 L 237.472656 508.773438 L 255.316406 528.847656 C 255.316406 528.847656 305.25 501.441406 384.574219 488.703125 C 464.046875 475.960938 533.175781 489.28125 533.175781 489.28125 C 533.175781 489.28125 457.75 470.75 377.226563 478.085938 C 296.855469 485.421875 256.519531 508.96875 256.519531 508.96875 "/>
<path style=" stroke:none;fill-rule:nonzero;fill:rgb(5.085754%,50.305176%,78.425598%);fill-opacity:1;" d="M 131.308594 403.195313 L 114.214844 469.207031 L 104.320313 469.207031 L 90.523438 414.390625 L 76.878906 469.207031 L 67.28125 469.207031 L 49.886719 403.195313 L 58.886719 403.195313 L 72.679688 458.011719 L 86.324219 403.195313 L 95.171875 403.195313 L 108.96875 458.589844 L 122.761719 403.195313 "/>
<path style=" stroke:none;fill-rule:nonzero;fill:rgb(5.085754%,50.305176%,78.425598%);fill-opacity:1;" d="M 172.394531 438.710938 C 172.394531 434.464844 171.347656 430.988281 169.246094 428.671875 C 167 426.164063 163.699219 425.007813 159.351563 425.007813 C 154.851563 425.007813 151.402344 426.355469 148.703125 429.058594 C 146.15625 431.570313 144.65625 434.851563 144.355469 438.710938 Z M 180.644531 445.273438 L 144.355469 445.273438 C 144.355469 448.359375 144.804688 450.871094 145.707031 453.1875 C 146.605469 455.503906 147.804688 457.238281 149.453125 458.785156 C 150.953125 460.136719 152.753906 461.292969 154.851563 461.871094 C 156.953125 462.644531 159.351563 463.03125 161.75 463.03125 C 165.199219 463.03125 168.496094 462.257813 171.945313 460.90625 C 175.394531 459.554688 177.792969 458.398438 179.292969 457.046875 L 179.59375 457.046875 L 179.59375 466.117188 C 176.894531 467.277344 174.046875 468.242188 171.046875 469.015625 C 168.199219 469.785156 165.046875 470.171875 161.902344 470.171875 C 153.652344 470.171875 147.207031 468.050781 142.554688 463.609375 C 138.058594 459.171875 135.660156 452.800781 135.660156 444.695313 C 135.660156 436.585938 137.910156 430.21875 142.257813 425.390625 C 146.753906 420.566406 152.601563 418.25 159.800781 418.25 C 166.398438 418.25 171.496094 420.179688 175.09375 424.039063 C 178.84375 428.09375 180.644531 433.5 180.644531 440.640625 "/>
<path style=" stroke:none;fill-rule:nonzero;fill:rgb(5.085754%,50.305176%,78.425598%);fill-opacity:1;" d="M 262.214844 423.269531 C 262.214844 421.53125 261.765625 420.179688 261.164063 419.023438 C 260.417969 417.863281 259.367188 416.898438 257.71875 416.320313 C 256.519531 415.742188 255.167969 415.546875 253.667969 415.355469 C 252.167969 415.355469 250.371094 415.160156 248.269531 415.160156 L 242.273438 415.160156 L 242.273438 432.917969 L 247.371094 432.917969 C 250.070313 432.917969 252.320313 432.917969 254.117188 432.535156 C 256.066406 432.339844 257.566406 431.761719 258.765625 430.796875 C 259.96875 429.832031 260.71875 428.867188 261.316406 427.707031 C 261.914063 426.550781 262.214844 425.199219 262.214844 423.269531 M 288.605469 469.207031 L 267.914063 469.207031 L 249.917969 444.886719 L 242.273438 444.886719 L 242.273438 469.207031 L 225.179688 469.207031 L 225.179688 403.195313 L 253.667969 403.195313 C 257.566406 403.195313 261.015625 403.582031 263.714844 403.964844 C 266.566406 404.351563 269.265625 405.316406 271.664063 406.863281 C 274.0625 408.214844 276.160156 410.144531 277.511719 412.460938 C 279.011719 414.777344 279.761719 417.863281 279.761719 421.339844 C 279.761719 426.164063 278.558594 430.21875 276.3125 433.304688 C 274.0625 436.199219 270.914063 438.902344 266.714844 440.832031 "/>
<path style=" stroke:none;fill-rule:nonzero;fill:rgb(5.085754%,50.305176%,78.425598%);fill-opacity:1;" d="M 328.195313 437.9375 C 328.042969 434.464844 327.144531 431.953125 325.644531 430.410156 C 324.144531 428.671875 321.59375 427.707031 318.296875 427.707031 C 315.296875 427.707031 312.75 428.480469 310.800781 430.21875 C 308.699219 431.761719 307.652344 434.269531 307.351563 437.9375 Z M 344.089844 447.203125 L 307.5 447.203125 C 307.652344 451.0625 309.148438 454.152344 311.847656 456.273438 C 314.699219 458.203125 318.746094 459.363281 323.996094 459.363281 C 327.445313 459.363281 330.742188 458.785156 333.890625 457.433594 C 337.039063 456.273438 339.589844 455.117188 341.390625 453.570313 L 343.1875 453.570313 L 343.1875 466.503906 C 339.589844 467.855469 336.140625 469.015625 332.992188 469.59375 C 329.84375 470.171875 326.246094 470.558594 322.34375 470.558594 C 312.449219 470.558594 304.800781 468.242188 299.554688 463.800781 C 294.15625 459.363281 291.457031 452.800781 291.457031 444.5 C 291.457031 436.394531 294.003906 429.832031 299.101563 425.007813 C 304.050781 420.179688 310.949219 417.863281 319.796875 417.863281 C 327.742188 417.863281 333.890625 419.792969 337.941406 424.039063 C 341.988281 428.09375 344.089844 433.886719 344.089844 441.605469 "/>
<path style=" stroke:none;fill-rule:nonzero;fill:rgb(5.085754%,50.305176%,78.425598%);fill-opacity:1;" d="M 387.722656 412.074219 L 386.523438 412.074219 C 385.773438 411.878906 384.875 411.496094 383.675781 411.300781 C 382.625 411.109375 381.425781 410.914063 380.074219 410.914063 C 376.925781 410.914063 374.828125 411.496094 373.777344 412.652344 C 372.578125 413.617188 372.128906 415.742188 372.128906 419.023438 L 372.128906 419.410156 L 384.273438 419.410156 L 384.273438 430.21875 L 372.578125 430.21875 L 372.578125 469.207031 L 356.535156 469.207031 L 356.535156 430.21875 L 349.785156 430.21875 L 349.785156 419.410156 L 356.535156 419.410156 L 356.535156 418.058594 C 356.535156 411.878906 358.183594 407.441406 361.480469 404.351563 C 364.632813 401.265625 369.578125 399.722656 376.175781 399.722656 C 378.574219 399.722656 380.675781 399.914063 382.625 399.914063 C 384.574219 400.105469 386.222656 400.300781 387.722656 400.6875 "/>
<path style=" stroke:none;fill-rule:nonzero;fill:rgb(5.085754%,50.305176%,78.425598%);fill-opacity:1;" d="M 409.617188 469.207031 L 393.722656 469.207031 L 393.722656 419.410156 L 409.617188 419.410156 Z M 410.066406 412.265625 L 393.269531 412.265625 L 393.269531 400.105469 L 410.066406 400.105469 "/>
<path style=" stroke:none;fill-rule:nonzero;fill:rgb(5.085754%,50.305176%,78.425598%);fill-opacity:1;" d="M 474.542969 469.207031 L 458.648438 469.207031 L 458.648438 444.5 C 458.648438 442.570313 458.5 440.445313 458.347656 438.515625 C 458.050781 436.585938 457.75 435.042969 457.300781 434.078125 C 456.699219 433.113281 455.800781 432.339844 454.601563 431.761719 C 453.550781 431.183594 451.902344 430.988281 449.800781 430.988281 C 448.453125 430.988281 446.953125 431.183594 445.453125 431.761719 C 443.953125 432.148438 442.304688 432.917969 440.503906 433.886719 L 440.503906 469.207031 L 424.609375 469.207031 L 424.609375 419.410156 L 440.503906 419.410156 L 440.503906 425.003906 C 443.355469 422.691406 446.054688 421.144531 448.753906 419.988281 C 451.300781 418.636719 454.300781 418.058594 457.449219 418.058594 C 462.847656 418.058594 467.046875 419.601563 470.046875 422.882813 C 473.042969 425.972656 474.542969 430.605469 474.542969 436.78125 "/>
<path style=" stroke:none;fill-rule:nonzero;fill:rgb(5.085754%,50.305176%,78.425598%);fill-opacity:1;" d="M 522.078125 437.9375 C 522.078125 434.464844 521.175781 431.953125 519.679688 430.410156 C 518.027344 428.671875 515.628906 427.707031 512.332031 427.707031 C 509.179688 427.707031 506.78125 428.480469 504.683594 430.21875 C 502.734375 431.761719 501.683594 434.269531 501.382813 437.9375 Z M 538.121094 447.203125 L 501.382813 447.203125 C 501.683594 451.0625 503.183594 454.152344 505.882813 456.273438 C 508.582031 458.203125 512.628906 459.363281 518.027344 459.363281 C 521.328125 459.363281 524.625 458.785156 527.777344 457.433594 C 531.074219 456.273438 533.472656 455.117188 535.421875 453.570313 L 537.074219 453.570313 L 537.074219 466.503906 C 533.472656 467.855469 530.175781 469.015625 527.027344 469.59375 C 523.726563 470.171875 520.277344 470.558594 516.378906 470.558594 C 506.484375 470.558594 498.835938 468.242188 493.4375 463.800781 C 488.191406 459.363281 485.488281 452.800781 485.488281 444.5 C 485.488281 436.394531 488.039063 429.832031 493.136719 425.007813 C 498.085938 420.179688 504.984375 417.863281 513.679688 417.863281 C 521.777344 417.863281 527.925781 419.792969 531.972656 424.039063 C 536.023438 428.09375 538.121094 433.886719 538.121094 441.605469 "/>
<path style=" stroke:none;fill-rule:nonzero;fill:rgb(5.085754%,50.305176%,78.425598%);fill-opacity:1;" d="M 616.546875 421.726563 C 616.546875 419.792969 616.246094 418.25 615.644531 416.707031 C 614.894531 415.355469 613.847656 414.003906 612.347656 413.039063 C 610.996094 412.265625 609.496094 411.6875 607.847656 411.300781 C 606.050781 410.914063 603.949219 410.722656 601.699219 410.722656 L 591.355469 410.722656 L 591.355469 435.621094 L 600.203125 435.621094 C 602.898438 435.621094 605.449219 435.429688 607.398438 434.851563 C 609.496094 434.464844 611.296875 433.5 612.796875 432.148438 C 613.996094 430.988281 615.046875 429.445313 615.644531 427.902344 C 616.246094 426.355469 616.546875 424.234375 616.546875 421.726563 M 637.089844 469.207031 L 625.84375 469.207031 L 603.800781 442.957031 L 591.355469 442.957031 L 591.355469 469.207031 L 582.65625 469.207031 L 582.65625 403.195313 L 601.101563 403.195313 C 605 403.195313 608.296875 403.582031 610.996094 403.964844 C 613.695313 404.546875 616.09375 405.511719 618.195313 406.863281 C 620.59375 408.214844 622.394531 410.144531 623.742188 412.460938 C 625.09375 414.777344 625.84375 417.671875 625.84375 421.144531 C 625.84375 425.96875 624.640625 429.832031 622.242188 433.113281 C 619.84375 436.199219 616.546875 438.710938 612.347656 440.253906 "/>
<path style=" stroke:none;fill-rule:nonzero;fill:rgb(5.085754%,50.305176%,78.425598%);fill-opacity:1;" d="M 653.132813 469.207031 L 644.886719 469.207031 L 644.886719 419.601563 L 653.132813 419.601563 Z M 653.582031 411.300781 L 644.4375 411.300781 L 644.4375 402.808594 L 653.582031 402.808594 "/>
<path style=" stroke:none;fill-rule:nonzero;fill:rgb(5.085754%,50.305176%,78.425598%);fill-opacity:1;" d="M 701.714844 455.503906 L 701.714844 428.480469 C 699.46875 427.515625 697.367188 426.9375 695.570313 426.355469 C 693.621094 425.96875 691.667969 425.777344 689.71875 425.777344 C 685.222656 425.777344 681.625 427.320313 678.925781 430.410156 C 676.226563 433.5 674.875 437.9375 674.875 443.730469 C 674.875 449.324219 675.925781 453.574219 677.875 456.46875 C 679.824219 459.363281 683.121094 460.714844 687.621094 460.714844 C 690.019531 460.714844 692.570313 460.328125 694.96875 459.363281 C 697.367188 458.398438 699.617188 457.046875 701.714844 455.503906 M 709.964844 463.417969 C 709.964844 471.910156 708.164063 478.085938 704.265625 481.945313 C 700.515625 485.808594 694.667969 487.738281 686.722656 487.738281 C 684.023438 487.738281 681.472656 487.542969 678.925781 487.351563 C 676.527344 486.964844 673.976563 486.386719 671.578125 485.613281 L 671.578125 477.3125 L 672.027344 477.3125 C 673.375 477.699219 675.476563 478.472656 678.472656 479.242188 C 681.472656 479.824219 684.472656 480.207031 687.472656 480.207031 C 690.320313 480.207031 692.570313 480.015625 694.519531 479.242188 C 696.320313 478.664063 697.816406 477.699219 698.867188 476.542969 C 699.917969 475.382813 700.667969 473.839844 701.117188 472.292969 C 701.566406 470.75 701.714844 468.820313 701.714844 466.890625 L 701.714844 462.453125 C 699.167969 464.382813 696.769531 465.925781 694.519531 466.890625 C 692.269531 467.855469 689.269531 468.433594 685.671875 468.433594 C 679.824219 468.433594 675.027344 466.3125 671.578125 461.871094 C 668.128906 457.625 666.328125 451.644531 666.328125 443.921875 C 666.328125 439.675781 666.929688 436.007813 668.128906 432.917969 C 669.328125 429.832031 670.976563 427.128906 673.078125 425.003906 C 675.027344 422.882813 677.425781 421.144531 680.125 419.988281 C 682.824219 418.828125 685.671875 418.25 688.371094 418.25 C 691.21875 418.25 693.621094 418.636719 695.570313 419.214844 C 697.515625 419.792969 699.617188 420.566406 701.714844 421.726563 L 702.316406 419.601563 L 709.964844 419.601563 "/>
<path style=" stroke:none;fill-rule:nonzero;fill:rgb(5.085754%,50.305176%,78.425598%);fill-opacity:1;" d="M 767.695313 469.207031 L 759.445313 469.207031 L 759.445313 441.027344 C 759.445313 438.710938 759.296875 436.585938 758.996094 434.65625 C 758.695313 432.535156 758.246094 430.988281 757.496094 429.832031 C 756.746094 428.671875 755.699219 427.707031 754.347656 427.128906 C 753 426.550781 751.050781 426.164063 748.800781 426.164063 C 746.550781 426.164063 744.152344 426.742188 741.601563 427.902344 C 739.203125 429.058594 736.804688 430.410156 734.40625 432.148438 L 734.40625 469.207031 L 726.15625 469.207031 L 726.15625 400.105469 L 734.40625 400.105469 L 734.40625 425.199219 C 737.105469 423.074219 739.804688 421.339844 742.503906 420.179688 C 745.351563 418.828125 748.199219 418.25 751.199219 418.25 C 756.597656 418.25 760.644531 419.988281 763.496094 423.074219 C 766.34375 426.355469 767.695313 430.988281 767.695313 436.972656 "/>
<path style=" stroke:none;fill-rule:nonzero;fill:rgb(5.085754%,50.305176%,78.425598%);fill-opacity:1;" d="M 809.230469 468.820313 C 807.730469 469.207031 805.929688 469.59375 804.132813 469.785156 C 802.183594 469.980469 800.53125 470.171875 799.183594 470.171875 C 794.085938 470.171875 790.1875 468.820313 787.488281 466.117188 C 784.9375 463.417969 783.589844 458.976563 783.589844 452.992188 L 783.589844 426.742188 L 777.890625 426.742188 L 777.890625 419.601563 L 783.589844 419.601563 L 783.589844 405.316406 L 791.835938 405.316406 L 791.835938 419.601563 L 809.230469 419.601563 L 809.230469 426.742188 L 791.835938 426.742188 L 791.835938 449.324219 C 791.835938 452.027344 791.835938 453.957031 791.984375 455.503906 C 792.136719 456.855469 792.585938 458.203125 793.183594 459.554688 C 793.933594 460.714844 794.835938 461.679688 796.035156 462.257813 C 797.082031 462.644531 798.882813 463.03125 801.28125 463.03125 C 802.632813 463.03125 804.132813 462.835938 805.632813 462.449219 C 807.132813 462.066406 808.179688 461.679688 808.78125 461.484375 L 809.230469 461.484375 "/>
<path style=" stroke:none;fill-rule:nonzero;fill:rgb(5.085754%,50.305176%,78.425598%);fill-opacity:1;" d="M 131.308594 403.195313 L 114.214844 469.207031 L 104.320313 469.207031 L 90.523438 414.390625 L 76.878906 469.207031 L 67.28125 469.207031 L 49.886719 403.195313 L 58.886719 403.195313 L 72.679688 458.011719 L 86.324219 403.195313 L 95.171875 403.195313 L 108.96875 458.589844 L 122.761719 403.195313 "/>
<path style=" stroke:none;fill-rule:nonzero;fill:rgb(5.085754%,50.305176%,78.425598%);fill-opacity:1;" d="M 172.394531 438.710938 C 172.394531 434.464844 171.347656 430.988281 169.246094 428.671875 C 167 426.164063 163.699219 425.007813 159.351563 425.007813 C 154.851563 425.007813 151.402344 426.355469 148.703125 429.058594 C 146.15625 431.570313 144.65625 434.851563 144.355469 438.710938 Z M 180.644531 445.273438 L 144.355469 445.273438 C 144.355469 448.359375 144.804688 450.871094 145.707031 453.1875 C 146.605469 455.503906 147.804688 457.238281 149.453125 458.785156 C 150.953125 460.136719 152.753906 461.292969 154.851563 461.871094 C 156.953125 462.644531 159.351563 463.03125 161.75 463.03125 C 165.199219 463.03125 168.496094 462.257813 171.945313 460.90625 C 175.394531 459.554688 177.792969 458.398438 179.292969 457.046875 L 179.59375 457.046875 L 179.59375 466.117188 C 176.894531 467.277344 174.046875 468.242188 171.046875 469.015625 C 168.199219 469.785156 165.046875 470.171875 161.902344 470.171875 C 153.652344 470.171875 147.207031 468.050781 142.554688 463.609375 C 138.058594 459.171875 135.660156 452.800781 135.660156 444.695313 C 135.660156 436.585938 137.910156 430.21875 142.257813 425.390625 C 146.753906 420.566406 152.601563 418.25 159.800781 418.25 C 166.398438 418.25 171.496094 420.179688 175.09375 424.039063 C 178.84375 428.09375 180.644531 433.5 180.644531 440.640625 "/>
<path style=" stroke:none;fill-rule:nonzero;fill:rgb(5.085754%,50.305176%,78.425598%);fill-opacity:1;" d="M 262.214844 423.269531 C 262.214844 421.53125 261.765625 420.179688 261.164063 419.023438 C 260.417969 417.863281 259.367188 416.898438 257.71875 416.320313 C 256.519531 415.742188 255.167969 415.546875 253.667969 415.355469 C 252.167969 415.355469 250.371094 415.160156 248.269531 415.160156 L 242.273438 415.160156 L 242.273438 432.917969 L 247.371094 432.917969 C 250.070313 432.917969 252.320313 432.917969 254.117188 432.535156 C 256.066406 432.339844 257.566406 431.761719 258.765625 430.796875 C 259.96875 429.832031 260.71875 428.867188 261.316406 427.707031 C 261.914063 426.550781 262.214844 425.199219 262.214844 423.269531 M 288.605469 469.207031 L 267.914063 469.207031 L 249.917969 444.886719 L 242.273438 444.886719 L 242.273438 469.207031 L 225.179688 469.207031 L 225.179688 403.195313 L 253.667969 403.195313 C 257.566406 403.195313 261.015625 403.582031 263.714844 403.964844 C 266.566406 404.351563 269.265625 405.316406 271.664063 406.863281 C 274.0625 408.214844 276.160156 410.144531 277.511719 412.460938 C 279.011719 414.777344 279.761719 417.863281 279.761719 421.339844 C 279.761719 426.164063 278.558594 430.21875 276.3125 433.304688 C 274.0625 436.199219 270.914063 438.902344 266.714844 440.832031 "/>
<path style=" stroke:none;fill-rule:nonzero;fill:rgb(5.085754%,50.305176%,78.425598%);fill-opacity:1;" d="M 328.195313 437.9375 C 328.042969 434.464844 327.144531 431.953125 325.644531 430.410156 C 324.144531 428.671875 321.59375 427.707031 318.296875 427.707031 C 315.296875 427.707031 312.75 428.480469 310.800781 430.21875 C 308.699219 431.761719 307.652344 434.269531 307.351563 437.9375 Z M 344.089844 447.203125 L 307.5 447.203125 C 307.652344 451.0625 309.148438 454.152344 311.847656 456.273438 C 314.699219 458.203125 318.746094 459.363281 323.996094 459.363281 C 327.445313 459.363281 330.742188 458.785156 333.890625 457.433594 C 337.039063 456.273438 339.589844 455.117188 341.390625 453.570313 L 343.1875 453.570313 L 343.1875 466.503906 C 339.589844 467.855469 336.140625 469.015625 332.992188 469.59375 C 329.84375 470.171875 326.246094 470.558594 322.34375 470.558594 C 312.449219 470.558594 304.800781 468.242188 299.554688 463.800781 C 294.15625 459.363281 291.457031 452.800781 291.457031 444.5 C 291.457031 436.394531 294.003906 429.832031 299.101563 425.007813 C 304.050781 420.179688 310.949219 417.863281 319.796875 417.863281 C 327.742188 417.863281 333.890625 419.792969 337.941406 424.039063 C 341.988281 428.09375 344.089844 433.886719 344.089844 441.605469 "/>
<path style=" stroke:none;fill-rule:nonzero;fill:rgb(5.085754%,50.305176%,78.425598%);fill-opacity:1;" d="M 387.722656 412.074219 L 386.523438 412.074219 C 385.773438 411.878906 384.875 411.496094 383.675781 411.300781 C 382.625 411.109375 381.425781 410.914063 380.074219 410.914063 C 376.925781 410.914063 374.828125 411.496094 373.777344 412.652344 C 372.578125 413.617188 372.128906 415.742188 372.128906 419.023438 L 372.128906 419.410156 L 384.273438 419.410156 L 384.273438 430.21875 L 372.578125 430.21875 L 372.578125 469.207031 L 356.535156 469.207031 L 356.535156 430.21875 L 349.785156 430.21875 L 349.785156 419.410156 L 356.535156 419.410156 L 356.535156 418.058594 C 356.535156 411.878906 358.183594 407.441406 361.480469 404.351563 C 364.632813 401.265625 369.578125 399.722656 376.175781 399.722656 C 378.574219 399.722656 380.675781 399.914063 382.625 399.914063 C 384.574219 400.105469 386.222656 400.300781 387.722656 400.6875 "/>
<path style=" stroke:none;fill-rule:nonzero;fill:rgb(5.085754%,50.305176%,78.425598%);fill-opacity:1;" d="M 409.617188 469.207031 L 393.722656 469.207031 L 393.722656 419.410156 L 409.617188 419.410156 Z M 410.066406 412.265625 L 393.269531 412.265625 L 393.269531 400.105469 L 410.066406 400.105469 "/>
<path style=" stroke:none;fill-rule:nonzero;fill:rgb(5.085754%,50.305176%,78.425598%);fill-opacity:1;" d="M 474.542969 469.207031 L 458.648438 469.207031 L 458.648438 444.5 C 458.648438 442.570313 458.5 440.445313 458.347656 438.515625 C 458.050781 436.585938 457.75 435.042969 457.300781 434.078125 C 456.699219 433.113281 455.800781 432.339844 454.601563 431.761719 C 453.550781 431.183594 451.902344 430.988281 449.800781 430.988281 C 448.453125 430.988281 446.953125 431.183594 445.453125 431.761719 C 443.953125 432.148438 442.304688 432.917969 440.503906 433.886719 L 440.503906 469.207031 L 424.609375 469.207031 L 424.609375 419.410156 L 440.503906 419.410156 L 440.503906 425.003906 C 443.355469 422.691406 446.054688 421.144531 448.753906 419.988281 C 451.300781 418.636719 454.300781 418.058594 457.449219 418.058594 C 462.847656 418.058594 467.046875 419.601563 470.046875 422.882813 C 473.042969 425.972656 474.542969 430.605469 474.542969 436.78125 "/>
<path style=" stroke:none;fill-rule:nonzero;fill:rgb(5.085754%,50.305176%,78.425598%);fill-opacity:1;" d="M 522.078125 437.9375 C 522.078125 434.464844 521.175781 431.953125 519.679688 430.410156 C 518.027344 428.671875 515.628906 427.707031 512.332031 427.707031 C 509.179688 427.707031 506.78125 428.480469 504.683594 430.21875 C 502.734375 431.761719 501.683594 434.269531 501.382813 437.9375 Z M 538.121094 447.203125 L 501.382813 447.203125 C 501.683594 451.0625 503.183594 454.152344 505.882813 456.273438 C 508.582031 458.203125 512.628906 459.363281 518.027344 459.363281 C 521.328125 459.363281 524.625 458.785156 527.777344 457.433594 C 531.074219 456.273438 533.472656 455.117188 535.421875 453.570313 L 537.074219 453.570313 L 537.074219 466.503906 C 533.472656 467.855469 530.175781 469.015625 527.027344 469.59375 C 523.726563 470.171875 520.277344 470.558594 516.378906 470.558594 C 506.484375 470.558594 498.835938 468.242188 493.4375 463.800781 C 488.191406 459.363281 485.488281 452.800781 485.488281 444.5 C 485.488281 436.394531 488.039063 429.832031 493.136719 425.007813 C 498.085938 420.179688 504.984375 417.863281 513.679688 417.863281 C 521.777344 417.863281 527.925781 419.792969 531.972656 424.039063 C 536.023438 428.09375 538.121094 433.886719 538.121094 441.605469 "/>
<path style=" stroke:none;fill-rule:nonzero;fill:rgb(5.085754%,50.305176%,78.425598%);fill-opacity:1;" d="M 616.546875 421.726563 C 616.546875 419.792969 616.246094 418.25 615.644531 416.707031 C 614.894531 415.355469 613.847656 414.003906 612.347656 413.039063 C 610.996094 412.265625 609.496094 411.6875 607.847656 411.300781 C 606.050781 410.914063 603.949219 410.722656 601.699219 410.722656 L 591.355469 410.722656 L 591.355469 435.621094 L 600.203125 435.621094 C 602.898438 435.621094 605.449219 435.429688 607.398438 434.851563 C 609.496094 434.464844 611.296875 433.5 612.796875 432.148438 C 613.996094 430.988281 615.046875 429.445313 615.644531 427.902344 C 616.246094 426.355469 616.546875 424.234375 616.546875 421.726563 M 637.089844 469.207031 L 625.84375 469.207031 L 603.800781 442.957031 L 591.355469 442.957031 L 591.355469 469.207031 L 582.65625 469.207031 L 582.65625 403.195313 L 601.101563 403.195313 C 605 403.195313 608.296875 403.582031 610.996094 403.964844 C 613.695313 404.546875 616.09375 405.511719 618.195313 406.863281 C 620.59375 408.214844 622.394531 410.144531 623.742188 412.460938 C 625.09375 414.777344 625.84375 417.671875 625.84375 421.144531 C 625.84375 425.96875 624.640625 429.832031 622.242188 433.113281 C 619.84375 436.199219 616.546875 438.710938 612.347656 440.253906 "/>
<path style=" stroke:none;fill-rule:nonzero;fill:rgb(5.085754%,50.305176%,78.425598%);fill-opacity:1;" d="M 653.132813 469.207031 L 644.886719 469.207031 L 644.886719 419.601563 L 653.132813 419.601563 Z M 653.582031 411.300781 L 644.4375 411.300781 L 644.4375 402.808594 L 653.582031 402.808594 "/>
<path style=" stroke:none;fill-rule:nonzero;fill:rgb(5.085754%,50.305176%,78.425598%);fill-opacity:1;" d="M 701.714844 455.503906 L 701.714844 428.480469 C 699.46875 427.515625 697.367188 426.9375 695.570313 426.355469 C 693.621094 425.96875 691.667969 425.777344 689.71875 425.777344 C 685.222656 425.777344 681.625 427.320313 678.925781 430.410156 C 676.226563 433.5 674.875 437.9375 674.875 443.730469 C 674.875 449.324219 675.925781 453.574219 677.875 456.46875 C 679.824219 459.363281 683.121094 460.714844 687.621094 460.714844 C 690.019531 460.714844 692.570313 460.328125 694.96875 459.363281 C 697.367188 458.398438 699.617188 457.046875 701.714844 455.503906 M 709.964844 463.417969 C 709.964844 471.910156 708.164063 478.085938 704.265625 481.945313 C 700.515625 485.808594 694.667969 487.738281 686.722656 487.738281 C 684.023438 487.738281 681.472656 487.542969 678.925781 487.351563 C 676.527344 486.964844 673.976563 486.386719 671.578125 485.613281 L 671.578125 477.3125 L 672.027344 477.3125 C 673.375 477.699219 675.476563 478.472656 678.472656 479.242188 C 681.472656 479.824219 684.472656 480.207031 687.472656 480.207031 C 690.320313 480.207031 692.570313 480.015625 694.519531 479.242188 C 696.320313 478.664063 697.816406 477.699219 698.867188 476.542969 C 699.917969 475.382813 700.667969 473.839844 701.117188 472.292969 C 701.566406 470.75 701.714844 468.820313 701.714844 466.890625 L 701.714844 462.453125 C 699.167969 464.382813 696.769531 465.925781 694.519531 466.890625 C 692.269531 467.855469 689.269531 468.433594 685.671875 468.433594 C 679.824219 468.433594 675.027344 466.3125 671.578125 461.871094 C 668.128906 457.625 666.328125 451.644531 666.328125 443.921875 C 666.328125 439.675781 666.929688 436.007813 668.128906 432.917969 C 669.328125 429.832031 670.976563 427.128906 673.078125 425.003906 C 675.027344 422.882813 677.425781 421.144531 680.125 419.988281 C 682.824219 418.828125 685.671875 418.25 688.371094 418.25 C 691.21875 418.25 693.621094 418.636719 695.570313 419.214844 C 697.515625 419.792969 699.617188 420.566406 701.714844 421.726563 L 702.316406 419.601563 L 709.964844 419.601563 "/>
<path style=" stroke:none;fill-rule:nonzero;fill:rgb(5.085754%,50.305176%,78.425598%);fill-opacity:1;" d="M 767.695313 469.207031 L 759.445313 469.207031 L 759.445313 441.027344 C 759.445313 438.710938 759.296875 436.585938 758.996094 434.65625 C 758.695313 432.535156 758.246094 430.988281 757.496094 429.832031 C 756.746094 428.671875 755.699219 427.707031 754.347656 427.128906 C 753 426.550781 751.050781 426.164063 748.800781 426.164063 C 746.550781 426.164063 744.152344 426.742188 741.601563 427.902344 C 739.203125 429.058594 736.804688 430.410156 734.40625 432.148438 L 734.40625 469.207031 L 726.15625 469.207031 L 726.15625 400.105469 L 734.40625 400.105469 L 734.40625 425.199219 C 737.105469 423.074219 739.804688 421.339844 742.503906 420.179688 C 745.351563 418.828125 748.199219 418.25 751.199219 418.25 C 756.597656 418.25 760.644531 419.988281 763.496094 423.074219 C 766.34375 426.355469 767.695313 430.988281 767.695313 436.972656 "/>
<path style=" stroke:none;fill-rule:nonzero;fill:rgb(5.085754%,50.305176%,78.425598%);fill-opacity:1;" d="M 809.230469 468.820313 C 807.730469 469.207031 805.929688 469.59375 804.132813 469.785156 C 802.183594 469.980469 800.53125 470.171875 799.183594 470.171875 C 794.085938 470.171875 790.1875 468.820313 787.488281 466.117188 C 784.9375 463.417969 783.589844 458.976563 783.589844 452.992188 L 783.589844 426.742188 L 777.890625 426.742188 L 777.890625 419.601563 L 783.589844 419.601563 L 783.589844 405.316406 L 791.835938 405.316406 L 791.835938 419.601563 L 809.230469 419.601563 L 809.230469 426.742188 L 791.835938 426.742188 L 791.835938 449.324219 C 791.835938 452.027344 791.835938 453.957031 791.984375 455.503906 C 792.136719 456.855469 792.585938 458.203125 793.183594 459.554688 C 793.933594 460.714844 794.835938 461.679688 796.035156 462.257813 C 797.082031 462.644531 798.882813 463.03125 801.28125 463.03125 C 802.632813 463.03125 804.132813 462.835938 805.632813 462.449219 C 807.132813 462.066406 808.179688 461.679688 808.78125 461.484375 L 809.230469 461.484375 "/>
</g>
</svg>
